<?xml version="1.0" encoding="UTF-8"?>
<svg version="1.1" xmlns="http://www.w3.org/2000/svg" width="250" height="125">
<path d="M0 0 C0.93714844 0.43570312 1.87429687 0.87140625 2.83984375 1.3203125 C9.99216335 4.91118901 9.99216335 4.91118901 12.76386166 7.90557861 C17.00848498 12.35737812 20.14578168 14.5250952 26.35926819 15 C28.83300991 15.04062726 31.30770896 15.03788858 33.78149414 15 C35.15228559 15.00761944 36.52306128 15.01874949 37.89379883 15.03309631 C41.59002327 15.06195146 45.2845271 15.0421015 48.98068929 15.0130806 C52.85249318 14.99110349 56.72402571 15.01450341 60.59580994 15.03295898 C67.91621601 15.06102555 75.2359651 15.04865885 82.55635208 15.02153492 C92.45627194 14.98721081 102.35600096 15.0158118 112.25591564 15.04076958 C127.83761765 15.07840228 143.41792201 15.03236573 159 15 C159 40.41 159 65.82 159 92 C112.8 92 66.6 92 19 92 C18.01 93.98 18.01 93.98 17 96 C2.33125964 109.01300953 -13.38108269 111.94462035 -32.33544922 111.1953125 C-37.7022109 110.801927 -42.20266308 109.35838548 -47 107 C-48.40572266 106.34644531 -48.40572266 106.34644531 -49.83984375 105.6796875 C-63.6655828 98.73836995 -73.4457458 87.29071797 -78.80957031 72.81518555 C-80.89164761 66.40558862 -81.54484384 60.53510306 -81.5 53.8125 C-81.49427979 52.80872314 -81.48855957 51.80494629 -81.48266602 50.77075195 C-81.16891186 37.59835947 -77.35497874 27.32659756 -69 17 C-68.2575 15.96875 -67.515 14.9375 -66.75 13.875 C-50.29470389 -3.32826412 -22.00759449 -10.81900065 0 0 Z " fill="#6CC532" transform="translate(86,9)"/>
<path d="M0 0 C10.97900843 8.42051991 17.85787971 20.59260323 21 34 C22.33535426 48.7582659 18.94810863 62.89025757 9.890625 74.765625 C-0.48190593 86.71191925 -13.3025476 94.0068178 -29.24609375 95.25390625 C-43.48719131 95.73744845 -55.49785496 90.95929346 -66.1875 81.6875 C-77.84177658 70.7187691 -83.75626354 57.36612942 -84.4375 41.375 C-84.22633319 29.1537206 -79.90089413 18.29234714 -72 9 C-71.34257813 8.22011719 -70.68515625 7.44023437 -70.0078125 6.63671875 C-51.23354967 -13.82241383 -22.55512659 -14.74377012 0 0 Z " fill="#FCFEFC" transform="translate(94,20)"/>
<path d="M0 0 C0.9343689 -0.00630432 1.86873779 -0.01260864 2.8314209 -0.019104 C4.34862732 -0.01303131 4.34862732 -0.01303131 5.89648438 -0.00683594 C6.93212524 -0.00874939 7.96776611 -0.01066284 9.03479004 -0.01263428 C11.22713463 -0.01399691 13.41948726 -0.01029508 15.61181641 -0.00195312 C18.97642054 0.00874514 22.34049069 -0.00184597 25.70507812 -0.01464844 C27.83138139 -0.01332686 29.95768433 -0.01076449 32.08398438 -0.00683594 C33.09545532 -0.0108844 34.10692627 -0.01493286 35.14904785 -0.019104 C36.08341675 -0.01279968 37.01778564 -0.00649536 37.98046875 0 C39.21718323 0.00238678 39.21718323 0.00238678 40.47888184 0.00482178 C42.49023438 0.25878906 42.49023438 0.25878906 44.49023438 2.25878906 C44.74420166 4.30810547 44.74420166 4.30810547 44.74902344 6.86035156 C44.75532776 7.81474121 44.76163208 8.76913086 44.76812744 9.75244141 C44.76407898 10.78578613 44.76003052 11.81913086 44.75585938 12.88378906 C44.75872955 14.47054443 44.75872955 14.47054443 44.76165771 16.08935547 C44.7630204 18.32877846 44.7593182 20.56820932 44.75097656 22.80761719 C44.7402784 26.24464584 44.75086925 29.68115176 44.76367188 33.11816406 C44.7623503 35.29004022 44.75978793 37.46191605 44.75585938 39.63378906 C44.75990784 40.66713379 44.7639563 41.70047852 44.76812744 42.76513672 C44.76182312 43.71952637 44.7555188 44.67391602 44.74902344 45.65722656 C44.74743225 46.49946777 44.74584106 47.34170898 44.74420166 48.20947266 C44.49023438 50.25878906 44.49023438 50.25878906 42.49023438 52.25878906 C40.47888184 52.51275635 40.47888184 52.51275635 37.98046875 52.51757812 C37.04609985 52.52388245 36.11173096 52.53018677 35.14904785 52.53668213 C34.1375769 52.53263367 33.12610596 52.52858521 32.08398438 52.52441406 C31.04834351 52.52632751 30.01270264 52.52824097 28.94567871 52.5302124 C26.75333412 52.53157503 24.56098149 52.5278732 22.36865234 52.51953125 C19.00404821 52.50883299 15.63997806 52.51942409 12.27539062 52.53222656 C10.14908736 52.53090498 8.02278442 52.52834262 5.89648438 52.52441406 C4.37927795 52.53048676 4.37927795 52.53048676 2.8314209 52.53668213 C1.897052 52.53037781 0.96268311 52.52407349 0 52.51757812 C-1.23671448 52.51519135 -1.23671448 52.51519135 -2.49841309 52.51275635 C-4.50976562 52.25878906 -4.50976562 52.25878906 -6.50976562 50.25878906 C-6.76373291 48.20947266 -6.76373291 48.20947266 -6.76855469 45.65722656 C-6.77485901 44.70283691 -6.78116333 43.74844727 -6.78765869 42.76513672 C-6.78361023 41.73179199 -6.77956177 40.69844727 -6.77539062 39.63378906 C-6.77730408 38.57595215 -6.77921753 37.51811523 -6.78118896 36.42822266 C-6.78255165 34.18879967 -6.77884945 31.9493688 -6.77050781 29.70996094 C-6.75980965 26.27293229 -6.7704005 22.83642636 -6.78320312 19.39941406 C-6.78188155 17.2275379 -6.77931918 15.05566207 -6.77539062 12.88378906 C-6.78146332 11.33377197 -6.78146332 11.33377197 -6.78765869 9.75244141 C-6.78135437 8.79805176 -6.77505005 7.84366211 -6.76855469 6.86035156 C-6.7669635 6.01811035 -6.76537231 5.17586914 -6.76373291 4.30810547 C-6.23391534 0.03289406 -3.67947496 0.00710115 0 0 Z " fill="#6EC634" transform="translate(43.509765625,46.7412109375)"/>
<path d="M0 0 C4.29 0 8.58 0 13 0 C13.93491183 4.67455917 14.07972012 8.2965127 14 13 C14.66 13 15.32 13 16 13 C16.33 8.71 16.66 4.42 17 0 C21.29 0 25.58 0 30 0 C30 12.21 30 24.42 30 37 C27.03 37 24.06 37 21 37 C20.67 33.04 20.34 29.08 20 25 C19.34 28.63 18.68 32.26 18 36 C16.02 36 14.04 36 12 36 C11.34 31.71 10.68 27.42 10 23 C9.67 27.62 9.34 32.24 9 37 C6.03 37 3.06 37 0 37 C0 24.79 0 12.58 0 0 Z " fill="#F5FBF1" transform="translate(154,37)"/>
<path d="M0 0 C16 0 16 0 21 3 C23.2218078 7.4436156 22.22991938 13.49540825 22.25 18.375 C22.270625 19.62023437 22.29125 20.86546875 22.3125 22.1484375 C22.31765625 23.3446875 22.3228125 24.5409375 22.328125 25.7734375 C22.3374707 26.87091309 22.34681641 27.96838867 22.35644531 29.09912109 C21.95399899 32.37437259 21.40987804 33.7578326 19 36 C16.9152832 36.45410156 16.9152832 36.45410156 14.55078125 36.390625 C13.4047644 36.37563965 13.4047644 36.37563965 12.2355957 36.36035156 C11.27097412 36.32393555 10.30635254 36.28751953 9.3125 36.25 C6.239375 36.1675 3.16625 36.085 0 36 C0 24.12 0 12.24 0 0 Z " fill="#FAFDF9" transform="translate(129,37)"/>
<path d="M0 0 C4.62 0 9.24 0 14 0 C16.19252407 4.38504815 16.3240126 9.81830813 17.0625 14.625 C17.24876953 15.78902344 17.43503906 16.95304687 17.62695312 18.15234375 C18.55786785 24.17430496 19.23320096 29.9066846 19 36 C16.03 36 13.06 36 10 36 C10 34.02 10 32.04 10 30 C8.68 30 7.36 30 6 30 C6.020625 30.969375 6.04125 31.93875 6.0625 32.9375 C6 36 6 36 5 37 C3.48071962 37.07179964 1.95832518 37.08392007 0.4375 37.0625 C-0.38878906 37.05347656 -1.21507812 37.04445312 -2.06640625 37.03515625 C-2.70449219 37.02355469 -3.34257812 37.01195312 -4 37 C-4.3176201 29.21830757 -3.11463406 21.68461636 -2 14 C-1.80678562 12.63939468 -1.61407307 11.278718 -1.421875 9.91796875 C-0.95284071 6.61127698 -0.47708816 3.30553937 0 0 Z " fill="#F8FCF6" transform="translate(215,37)"/>
<path d="M0 0 C2.828125 0.43359375 2.828125 0.43359375 6.078125 1.74609375 C8.86909547 6.03222698 8.21360511 10.46518345 7.828125 15.43359375 C4.858125 15.43359375 1.888125 15.43359375 -1.171875 15.43359375 C-1.171875 12.46359375 -1.171875 9.49359375 -1.171875 6.43359375 C-2.161875 6.43359375 -3.151875 6.43359375 -4.171875 6.43359375 C-4.171875 14.68359375 -4.171875 22.93359375 -4.171875 31.43359375 C-3.511875 31.10359375 -2.851875 30.77359375 -2.171875 30.43359375 C-1.70664437 28.53826033 -1.70664437 28.53826033 -1.546875 26.37109375 C-1.423125 25.07171875 -1.299375 23.77234375 -1.171875 22.43359375 C1.798125 22.43359375 4.768125 22.43359375 7.828125 22.43359375 C8.31858822 30.64885261 8.31858822 30.64885261 5.953125 34.43359375 C2.23769594 37.93046816 -0.75284735 37.7622175 -5.6875 37.7265625 C-9.14386334 37.31897248 -10.85851369 35.97082873 -13.171875 33.43359375 C-15.27226574 29.23281226 -14.4898924 23.79918466 -14.546875 19.18359375 C-14.58425781 18.05050781 -14.62164062 16.91742188 -14.66015625 15.75 C-14.75917302 6.36541015 -14.75917302 6.36541015 -12.0234375 2.67578125 C-7.86878473 -0.59102792 -5.10083689 -0.30780912 0 0 Z " fill="#F8FCF5" transform="translate(201.171875,36.56640625)"/>
<path d="M0 0 C5.52865115 2.60389597 8.40914448 8.07894952 10.875 13.44921875 C11.5390625 16.265625 11.5390625 16.265625 11.875 18.44921875 C9.565 18.44921875 7.255 18.44921875 4.875 18.44921875 C4.64425781 17.918125 4.41351563 17.38703125 4.17578125 16.83984375 C2.09552121 12.33398406 0.38272833 8.90797966 -4.125 6.44921875 C-6.94028662 5.84839539 -9.31552025 5.79956218 -12.125 6.44921875 C-16.58856344 9.7224986 -18.25001455 13.41636307 -20.125 18.44921875 C-22.435 18.44921875 -24.745 18.44921875 -27.125 18.44921875 C-25.16966513 11.43862788 -22.88576356 5.18024943 -16.828125 0.78125 C-11.64790275 -1.77143177 -5.53040839 -1.43343306 0 0 Z " fill="#6FC636" transform="translate(70.125,24.55078125)"/>
<path d="M0 0 C2.83171242 2.01200619 3.84987863 3.12071767 4.4375 6.5625 C3.92693064 9.40710069 3.07614923 10.10007564 1 12 C1.20496094 12.66386719 1.40992187 13.32773438 1.62109375 14.01171875 C1.89050781 14.89472656 2.15992187 15.77773437 2.4375 16.6875 C2.83775391 17.99267578 2.83775391 17.99267578 3.24609375 19.32421875 C3.95785055 21.8504022 4.48528572 24.4264286 5 27 C0.05 27 -4.9 27 -10 27 C-8.92 19.44 -8.92 19.44 -7.75 15.75 C-7.5025 14.5125 -7.255 13.275 -7 12 C-8.41666667 10.41666667 -8.41666667 10.41666667 -10 9 C-9.875 5.4375 -9.875 5.4375 -9 2 C-5.50875983 -0.32749345 -4.10777749 -0.50299316 0 0 Z " fill="#F5FBF1" transform="translate(65,60)"/>
<path d="M0 0 C0.99 0 1.98 0 3 0 C3 7.92 3 15.84 3 24 C2.01 24.33 1.02 24.66 0 25 C0 16.75 0 8.5 0 0 Z " fill="#7DCC49" transform="translate(138,43)"/>
<path d="M0 0 C2.5625 0.1875 2.5625 0.1875 4.5625 2.1875 C4.75 4.75 4.75 4.75 4.5625 7.1875 C3.5625 8.1875 3.5625 8.1875 0.5625 8.3125 C-2.4375 8.1875 -2.4375 8.1875 -3.4375 7.1875 C-3.5625 4.1875 -3.5625 4.1875 -3.4375 1.1875 C-2.4375 0.1875 -2.4375 0.1875 0 0 Z " fill="#E6F5DC" transform="translate(158.4375,79.8125)"/>
<path d="M0 0 C2.375 -0.125 2.375 -0.125 5 0 C5.66 0.66 6.32 1.32 7 2 C6.625 5.125 6.625 5.125 6 8 C4.02 8 2.04 8 0 8 C0 5.36 0 2.72 0 0 Z " fill="#C8E9B3" transform="translate(228,80)"/>
<path d="M0 0 C1.65 0 3.3 0 5 0 C5.77321882 2.98241547 6.41196203 5.97580475 7 9 C5 9 5 9 3.375 7.5 C2.92125 7.005 2.4675 6.51 2 6 C2 6.99 2 7.98 2 9 C1.34 9 0.68 9 0 9 C0 6.03 0 3.06 0 0 Z " fill="#D5EEC5" transform="translate(142,80)"/>
<path d="M0 0 C0.33 0 0.66 0 1 0 C1.05791844 3.12492251 1.09356746 6.24970766 1.125 9.375 C1.14175781 10.26445313 1.15851563 11.15390625 1.17578125 12.0703125 C1.18222656 12.92109375 1.18867188 13.771875 1.1953125 14.6484375 C1.20578613 15.43395996 1.21625977 16.21948242 1.22705078 17.02880859 C1 19 1 19 -1 21 C-4.625 21.125 -4.625 21.125 -8 21 C-8 20.67 -8 20.34 -8 20 C-6.02 20 -4.04 20 -2 20 C-1.34 13.4 -0.68 6.8 0 0 Z " fill="#7FCD4D" transform="translate(174,53)"/>
<path d="M0 0 C1.65 0 3.3 0 5 0 C5.33 1.32 5.66 2.64 6 4 C4.02 4.99 4.02 4.99 2 6 C2 6.99 2 7.98 2 9 C1.34 9 0.68 9 0 9 C0 6.03 0 3.06 0 0 Z " fill="#D9F0CA" transform="translate(130,80)"/>
<path d="M0 0 C1.65 0 3.3 0 5 0 C5 1.65 5 3.3 5 5 C4.01 5 3.02 5 2 5 C2 5.66 2 6.32 2 7 C2.99 7 3.98 7 5 7 C5 7.66 5 8.32 5 9 C3.35 9 1.7 9 0 9 C0 6.03 0 3.06 0 0 Z " fill="#DEF2D0" transform="translate(216,80)"/>
<path d="M0 0 C2.31 0 4.62 0 7 0 C6.01 0.495 6.01 0.495 5 1 C5 3.64 5 6.28 5 9 C4.01 9 3.02 9 2 9 C2 6.69 2 4.38 2 2 C1.34 2 0.68 2 0 2 C0 1.34 0 0.68 0 0 Z " fill="#CBEAB6" transform="translate(168,80)"/>
<path d="M0 0 C1.65 0 3.3 0 5 0 C5 1.65 5 3.3 5 5 C4.01 5 3.02 5 2 5 C2 5.66 2 6.32 2 7 C2.99 7.33 3.98 7.66 5 8 C3.35 8 1.7 8 0 8 C0 5.36 0 2.72 0 0 Z " fill="#E6F5DC" transform="translate(181,80)"/>
<path d="M0 0 C0.33 0 0.66 0 1 0 C2.32286246 4.96073422 2.08893197 9.91111512 2 15 C1.01 15 0.02 15 -1 15 C-0.67 10.05 -0.34 5.1 0 0 Z " fill="#7ECC4B" transform="translate(222,46)"/>
<path d="M0 0 C1.32 0 2.64 0 4 0 C4 0.66 4 1.32 4 2 C2.68 2 1.36 2 0 2 C0.27617533 3.94074861 0.27617533 3.94074861 1 6 C1.99 6.66 2.98 7.32 4 8 C2.33388095 8.042721 0.66617115 8.04063832 -1 8 C-2 7 -2 7 -2.1875 4.5625 C-2 2 -2 2 0 0 Z " fill="#EBF7E3" transform="translate(194,80)"/>
<path d="M0 0 C1.98 0 3.96 0 6 0 C5.01 0.495 5.01 0.495 4 1 C4 3.64 4 6.28 4 9 C3.34 9 2.68 9 2 9 C2 6.69 2 4.38 2 2 C1.34 2 0.68 2 0 2 C0 1.34 0 0.68 0 0 Z " fill="#E8F6DF" transform="translate(204,80)"/>
<path d="M0 0 C1.32 0 2.64 0 4 0 C3.67 1.65 3.34 3.3 3 5 C2.01 5 1.02 5 0 5 C0 3.35 0 1.7 0 0 Z " fill="#73C83C" transform="translate(157,82)"/>
<path d="M0 0 C0.66 0 1.32 0 2 0 C2.33 1.65 2.66 3.3 3 5 C0.69 5 -1.62 5 -4 5 C-2.68 4.34 -1.36 3.68 0 3 C0 2.01 0 1.02 0 0 Z " fill="#83CE52" transform="translate(79,38)"/>
</svg>
