<?xml version="1.0" encoding="UTF-8"?>
<svg version="1.1" xmlns="http://www.w3.org/2000/svg" width="900" height="570">
<path d="M0 0 C5.7913716 3.07726572 10.0084975 8.02329464 14.47265625 12.73046875 C16.20899698 14.55241274 17.9522366 16.36781309 19.703125 18.17578125 C20.46391357 18.97773926 21.22470215 19.77969727 22.00854492 20.60595703 C24.36066877 22.67179021 26.32884964 23.63970497 29.28515625 24.60546875 C29.81882812 24.06132324 30.3525 23.51717773 30.90234375 22.95654297 C33.35783691 20.45909826 35.82140696 17.96976803 38.28515625 15.48046875 C39.54392578 14.1965625 39.54392578 14.1965625 40.828125 12.88671875 C55.05929368 -1.45476907 55.05929368 -1.45476907 64.47265625 -1.70703125 C65.37371094 -1.74441406 66.27476562 -1.78179687 67.203125 -1.8203125 C76.02981101 -0.60090974 81.37221059 5.20735774 87.28515625 11.41796875 C92.16512253 16.46865058 97.04815228 21.3615992 102.3828125 25.93237305 C105.50052579 28.67437628 108.38205217 31.63995881 111.28515625 34.60546875 C115.44915968 38.81784608 119.63825143 42.87808467 124.1640625 46.703125 C127.7533018 49.92220334 131.09303431 53.39386634 134.48168945 56.8215332 C138.58555182 60.95431723 142.83053555 64.8515749 147.28515625 68.60546875 C149.20217472 70.52248722 148.45222186 74.07646643 148.4621582 76.6887207 C148.4687294 77.43036972 148.4753006 78.17201874 148.48207092 78.93614197 C148.50187116 81.40534562 148.51348897 83.87448789 148.5234375 86.34375 C148.52751303 87.18839499 148.53158855 88.03303997 148.53578758 88.90328026 C148.5566892 93.38449232 148.57096614 97.8656735 148.58032227 102.34692383 C148.59132093 106.95213505 148.62563207 111.55685423 148.66549397 116.16189289 C148.69181007 119.71983153 148.70002791 123.27765645 148.70360374 126.83568382 C148.70844087 128.53115299 148.71997169 130.22661808 148.73864174 131.92199135 C148.89339048 146.92181455 146.82266292 159.11482077 136.28515625 170.60546875 C123.67752453 181.81853433 110.90346754 184.41730822 94.60546875 183.78027344 C83.6003672 182.9511854 72.86637431 176.76451937 65.41015625 168.79296875 C58.88483215 160.71846699 54.88178926 151.20688668 55.25195312 140.76245117 C55.29103211 139.42629828 55.32962471 138.0901311 55.36779785 136.75395203 C55.39118729 136.05536261 55.41457672 135.35677319 55.43867493 134.63701439 C55.55151524 130.87273072 55.58665424 127.10738645 55.6328125 123.34179688 C55.69225398 118.57805835 55.77419365 113.81949588 55.96044922 109.05883789 C57.28013636 88.10185729 57.28013636 88.10185729 48.13122559 70.10945129 C45.09460619 67.28954066 41.97170254 64.72396229 38.60864258 62.30361938 C34.96379546 59.63973479 31.63884601 56.62236897 28.28515625 53.60546875 C24.47243834 56.78273367 20.82999154 60.00546775 17.34765625 63.54296875 C14.05038331 66.89156112 10.61981926 70.01136504 7.046875 73.0625 C6.46550781 73.57167969 5.88414062 74.08085937 5.28515625 74.60546875 C4.76208389 75.00769653 4.23901154 75.40992432 3.7000885 75.82434082 C1.64564085 78.4104958 1.89965743 80.371588 1.88452148 83.64648438 C1.87118271 84.8920813 1.85784393 86.13767822 1.84410095 87.42102051 C1.84396563 88.78458659 1.84384913 90.14815267 1.84375 91.51171875 C1.83196965 92.9159889 1.81860381 94.32024656 1.8037262 95.7244873 C1.76749418 99.42906721 1.74733894 103.13353678 1.73217773 106.83825684 C1.70739815 112.73865626 1.66711327 118.63881095 1.61027718 124.53898621 C1.59415354 126.58549935 1.59018764 128.63177639 1.58726501 130.67834473 C1.46658712 145.73331417 -0.84464199 159.67673312 -11.46484375 171.10546875 C-20.96871359 179.69020224 -32.82882075 184.19926962 -45.52734375 184.04296875 C-46.40245605 184.03467041 -47.27756836 184.02637207 -48.17919922 184.01782227 C-59.93169571 183.71254851 -68.63679447 180.02578729 -77.71484375 172.60546875 C-78.36324219 172.08210937 -79.01164062 171.55875 -79.6796875 171.01953125 C-89.44843732 162.25544498 -92.51779813 149.72887062 -93.25927734 137.1081543 C-93.6009535 130.0622219 -93.78103915 123.00996599 -93.91534996 115.95732403 C-93.99698223 111.712276 -94.11692991 107.47657294 -94.33349609 103.23608398 C-95.80609074 73.66737794 -95.80609074 73.66737794 -88.44628906 64.03759766 C-84.41103682 59.66020711 -80.01928411 55.94047707 -75.21392822 52.43716431 C-68.83889692 47.76460656 -63.23198242 42.24118846 -57.71484375 36.60546875 C-53.57220627 32.41476269 -49.40544448 28.37856247 -44.90234375 24.57421875 C-41.71659146 21.70704169 -38.72960234 18.65061169 -35.71484375 15.60546875 C-14.72755634 -5.52864102 -14.72755634 -5.52864102 0 0 Z M-22.83984375 30.10546875 C-23.49927979 30.72623291 -24.15871582 31.34699707 -24.83813477 31.98657227 C-29.76233723 36.64327834 -34.55223222 41.41822248 -39.31640625 46.23828125 C-41.33015353 48.22579078 -43.37127268 50.08940215 -45.52734375 51.91796875 C-50.12903697 55.836524 -54.30511303 60.17012984 -58.55273438 64.46289062 C-62.77761199 68.71529187 -67.12034942 72.75244901 -71.71484375 76.60546875 C-73.5451287 78.4357537 -72.88082048 81.34395201 -72.90771484 83.80249023 C-72.91589233 84.44981613 -72.92406982 85.09714203 -72.93249512 85.76408386 C-72.95741165 87.91823397 -72.97389076 90.07231737 -72.98828125 92.2265625 C-72.99626677 93.33178599 -72.99626677 93.33178599 -73.0044136 94.45933723 C-73.03118645 98.36765631 -73.05053833 102.27594315 -73.06494141 106.18432617 C-73.08149908 110.20249009 -73.12618785 114.21981926 -73.17731285 118.23766994 C-73.21116982 121.34087436 -73.22253945 124.44388641 -73.22816849 127.54725838 C-73.23484227 129.02670651 -73.24996235 130.50614376 -73.2740593 131.98541069 C-73.4235948 141.7300256 -72.71980231 149.83180621 -66.0977478 157.47093201 C-60.8186117 162.75578412 -53.42758509 165.14951806 -46.15234375 166.04296875 C-36.22981376 164.7801013 -29.16942728 161.55479793 -22.71484375 153.60546875 C-17.93832348 146.35529203 -18.32776872 138.82788349 -18.62633705 130.4690094 C-18.7048032 128.08574649 -18.74569553 125.70453877 -18.77519226 123.32019043 C-18.85938812 116.54785009 -18.9591023 109.77843838 -19.20483398 103.00976562 C-20.29973452 71.51054953 -20.29973452 71.51054953 -11.93217468 62.3104248 C-9.07378356 59.68593499 -6.13494581 57.35109497 -2.93392944 55.15917969 C3.0261686 50.98616846 8.21784991 45.79945774 13.28515625 40.60546875 C11.94597552 37.63068463 10.46608499 35.53018824 8.16796875 33.22265625 C7.25724609 32.30806641 7.25724609 32.30806641 6.328125 31.375 C5.69519531 30.74980469 5.06226563 30.12460938 4.41015625 29.48046875 C3.78496094 28.84753906 3.15976562 28.21460938 2.515625 27.5625 C1.90589844 26.95535156 1.29617188 26.34820312 0.66796875 25.72265625 C0.11512207 25.17206543 -0.43772461 24.62147461 -1.00732422 24.05419922 C-9.70329947 16.67617275 -16.2222483 23.81262176 -22.83984375 30.10546875 Z M52.22265625 29.04296875 C51.70638672 29.52056641 51.19011719 29.99816406 50.65820312 30.49023438 C47.80736967 33.13769627 45.01637587 35.834951 42.28515625 38.60546875 C43.83941857 42.5692975 46.59358854 44.93237073 49.72265625 47.66796875 C54.91428991 52.30465098 59.85333153 57.11720795 64.71484375 62.09765625 C67.25381105 64.7034468 67.25381105 64.7034468 70.40046692 66.82356262 C72.94094917 68.94010169 73.25016733 69.4508339 74.02445984 72.87284851 C74.01985245 74.11065567 74.01524506 75.34846283 74.01049805 76.6237793 C74.0163089 77.31070358 74.02211975 77.99762787 74.02810669 78.70536804 C74.04087718 80.96850806 74.01221681 83.22921525 73.984375 85.4921875 C73.98801208 87.07535264 73.9947189 88.65851342 74.00434875 90.24165344 C74.0234126 94.40885243 74.00940395 98.57521815 73.98583984 102.74237061 C73.95146352 109.39307447 73.95741655 116.04356434 73.98197365 122.69428444 C73.98432366 125.00422638 73.9666233 127.31337213 73.94670105 129.62321472 C73.91239345 141.04004717 74.85603511 150.15826845 83.02734375 158.69140625 C89.34566596 164.04776937 97.12127709 166.14080509 105.28515625 165.60546875 C114.23048692 163.48601758 121.04371956 159.20222057 126.28515625 151.60546875 C131.62369213 140.71453725 130.22964402 127.31351598 130.39038086 115.46166992 C130.43475181 112.52515648 130.52499197 109.59572382 130.65698242 106.66186523 C132.00651699 87.52055848 132.00651699 87.52055848 123.86701965 71.01319885 C121.17522603 68.51929733 118.40225567 66.27265713 115.41226196 64.14675903 C109.15310916 59.61140786 103.67872036 54.11499068 98.28515625 48.60546875 C94.10574454 44.37744638 89.90568374 40.29217912 85.35546875 36.4609375 C81.90772529 33.37097874 78.70283257 30.02834648 75.49560547 26.69091797 C71.86091605 22.9429971 71.86091605 22.9429971 67.28515625 20.60546875 C60.57396002 20.60546875 56.91990101 24.62933122 52.22265625 29.04296875 Z " fill="#2E3D76" transform="translate(406.71484375,103.39453125)"/>
<path d="M0 0 C5.11851063 3.61347431 7.90853047 7.55574554 11 12.9375 C11.9522693 14.54555061 12.90680567 16.15226025 13.86328125 17.7578125 C14.36682129 18.60633789 14.87036133 19.45486328 15.38916016 20.32910156 C18.23392545 25.0459449 21.2154151 29.67523546 24.1875 34.3125 C29.20484234 42.16120283 34.16312558 50.03868496 39 58 C42.89237007 54.53812247 45.25644273 50.55867159 47.875 46.125 C52.23151528 38.87039625 56.69482243 31.69409676 61.25 24.5625 C62.09860596 23.233396 62.09860596 23.233396 62.96435547 21.87744141 C64.07474122 20.13957288 65.18750527 18.40322145 66.30273438 16.66845703 C67.49791339 14.78938531 68.67467891 12.89853829 69.83789062 10.99951172 C70.44310547 10.01869629 71.04832031 9.03788086 71.671875 8.02734375 C72.21424805 7.136521 72.75662109 6.24569824 73.31542969 5.32788086 C75.03044945 2.95792239 76.51567778 1.52553103 79 0 C82.92721068 -0.58490372 84.48108543 -0.34594305 87.8125 1.875 C90.64418336 4.62577812 90.96923073 5.33625195 91.15390015 9.31990051 C91.17211348 10.77156048 91.18464406 12.22329791 91.19287109 13.67504883 C91.20513733 14.86312889 91.20513733 14.86312889 91.21765137 16.07521057 C91.24251118 18.7024764 91.25902265 21.32968819 91.2734375 23.95703125 C91.27876118 24.85362646 91.28408485 25.75022167 91.28956985 26.67398643 C91.31630374 31.41944906 91.33567803 36.16488535 91.35009766 40.91040039 C91.36674802 45.81342567 91.41152808 50.71577911 91.4624691 55.6185503 C91.49611507 59.3872302 91.50767214 63.15575009 91.51332474 66.92456627 C91.52004436 68.73190128 91.53528494 70.5392255 91.55921555 72.34641457 C91.59081487 74.87709017 91.59091237 77.40594672 91.58349609 79.93676758 C91.59990143 80.68240967 91.61630676 81.42805176 91.63320923 82.19628906 C91.58637829 86.10301557 91.12899483 87.83629069 88.68228149 90.94145203 C85.32245783 93.51998758 83.21895888 94 79 94 C76.07653443 92.63571607 74.27249091 91.27249091 72 89 C71.7215271 87.01315308 71.7215271 87.01315308 71.68115234 84.55029297 C71.66128265 83.62948944 71.64141296 82.70868591 71.62094116 81.75997925 C71.60938995 80.76410797 71.59783875 79.76823669 71.5859375 78.7421875 C71.56657135 77.72399933 71.5472052 76.70581116 71.5272522 75.6567688 C71.46734645 72.39626511 71.42102701 69.13572633 71.375 65.875 C71.33683035 63.66795313 71.29777923 61.46092131 71.2578125 59.25390625 C71.16163606 53.83607089 71.07662101 48.41814527 71 43 C70.56768066 43.70382812 70.13536133 44.40765625 69.68994141 45.1328125 C65.8365194 51.40473017 61.97928143 57.67426636 58.1164856 63.94041443 C55.99953418 67.37507594 53.88850129 70.81328762 51.78125 74.25390625 C50.89614263 75.6902948 50.01075397 77.12651008 49.125 78.5625 C48.72748535 79.21541016 48.3299707 79.86832031 47.92041016 80.54101562 C45.22814088 84.88592956 45.22814088 84.88592956 43 86 C39.8125 86.625 39.8125 86.625 36 86 C30.29863656 81.16856291 26.75056777 73.42526742 23.07885742 66.99633789 C18.61742725 59.18906966 13.78895697 51.60880306 9 44 C8.98541748 45.27641357 8.97083496 46.55282715 8.95581055 47.86791992 C8.8977646 52.61120379 8.82053172 57.35401607 8.73754883 62.09692383 C8.70432917 64.14827816 8.67628803 66.19972325 8.65356445 68.2512207 C8.6199643 71.20302949 8.56764524 74.15400886 8.51171875 77.10546875 C8.50213387 78.47761787 8.50213387 78.47761787 8.49235535 79.87748718 C8.3808719 84.72402494 8.14747631 88.06431163 5 92 C2.38808467 94.12822731 0.2423439 94.11561921 -3 93.875 C-6.78956541 93.28221882 -8.67705944 92.15919916 -11 89 C-12.17960436 85.46118693 -12.14761155 82.26071006 -12.14526367 78.57861328 C-12.14862228 77.82542816 -12.1519809 77.07224304 -12.15544128 76.29623413 C-12.16494665 73.80424351 -12.16689423 71.31232012 -12.16796875 68.8203125 C-12.17118176 67.08779879 -12.17454587 65.35528535 -12.17805481 63.62277222 C-12.18404514 59.98955659 -12.18589482 56.35636475 -12.18530273 52.72314453 C-12.18520115 48.07037732 -12.19884993 43.41776284 -12.21607494 38.76503181 C-12.22720062 35.1859365 -12.22922176 31.60687802 -12.22869301 28.02776718 C-12.2298724 26.31258493 -12.23429189 24.5974017 -12.24202538 22.88223648 C-12.25183613 20.48144122 -12.24894293 18.08097651 -12.24291992 15.68017578 C-12.24853943 14.97350769 -12.25415894 14.2668396 -12.25994873 13.53875732 C-12.22868041 8.62734186 -11.73666826 4.79869212 -8.25 1.1875 C-5.17240416 -0.43678669 -3.44411676 -0.55105868 0 0 Z " fill="#2E3D76" transform="translate(575,324)"/>
<path d="M0 0 C4.1419351 0.77661283 6.66224915 2.68635072 9.12890625 6.14575195 C10.30314625 8.07204218 11.40843766 10.02568403 12.5 12 C13.37530302 13.53386752 14.25302243 15.06635798 15.1328125 16.59765625 C15.82745605 17.81026123 15.82745605 17.81026123 16.53613281 19.04736328 C19.06652755 23.39494944 21.71940608 27.66561236 24.375 31.9375 C25.18553833 33.24291748 25.18553833 33.24291748 26.01245117 34.57470703 C31.62844386 43.59990434 37.30478293 52.58713609 43 61.5625 C45.64257763 59.1535149 47.37512006 56.54399276 49.23046875 53.49609375 C49.86114258 52.46508545 50.49181641 51.43407715 51.14160156 50.37182617 C51.81674805 49.25912354 52.49189453 48.1464209 53.1875 47 C53.8937259 45.84386366 54.60043912 44.68802487 55.30761719 43.5324707 C57.16440676 40.49682547 59.01694193 37.45860906 60.86834717 34.41967773 C63.80879962 29.59404334 66.75439074 24.77158741 69.70742798 19.9536438 C70.73123731 18.28065969 71.75079138 16.60507388 72.77026367 14.92944336 C73.39779541 13.90471924 74.02532715 12.87999512 74.671875 11.82421875 C75.2194043 10.92662842 75.76693359 10.02903809 76.33105469 9.10424805 C80.93264693 2.09617653 80.93264693 2.09617653 84 0.5625 C87.92074885 0.03973349 89.46743602 0.15769567 92.6607666 2.58496094 C95.5702752 6.28838597 95.69611749 9.05972495 95.61523438 13.578125 C95.62078339 14.37061646 95.6263324 15.16310791 95.63204956 15.97961426 C95.64383081 18.59119727 95.6195877 21.20103916 95.59375 23.8125 C95.5920384 25.63183513 95.59210508 27.45117273 95.59387207 29.27050781 C95.5922197 33.0803187 95.57353713 36.88954054 95.54199219 40.69921875 C95.50231479 45.57852163 95.49794745 50.45705322 95.50545502 55.33648682 C95.50852705 59.09235682 95.49639591 62.84805397 95.47932434 66.60388184 C95.47230151 68.40278031 95.46916894 70.20169837 95.47001648 72.00061035 C95.46821531 74.51639087 95.44680692 77.03125355 95.41992188 79.546875 C95.42285248 80.28780396 95.42578308 81.02873291 95.42880249 81.79211426 C95.35606742 86.21146372 94.72171224 89.04742665 92 92.5625 C88.90005108 94.45691323 87.09224952 94.56573683 83.4375 94.4375 C79.68880554 93.48328686 78.35990558 92.55776478 76 89.5625 C74.8584378 87.2793756 74.84665628 85.92770695 74.79467773 83.38818359 C74.7647599 82.09707169 74.7647599 82.09707169 74.73423767 80.77987671 C74.71752518 79.84962677 74.70081268 78.91937683 74.68359375 77.9609375 C74.66281265 77.00933746 74.64203156 76.05773743 74.62062073 75.07730103 C74.55511867 72.03077568 74.4962372 68.98416257 74.4375 65.9375 C74.39431541 63.87499084 74.35070114 61.81249063 74.30664062 59.75 C74.1994366 54.68759046 74.09817098 49.62509245 74 44.5625 C73.52167725 45.35309814 73.04335449 46.14369629 72.55053711 46.95825195 C70.74179532 49.94648459 68.93192612 52.93402863 67.12133789 55.92114258 C66.34420626 57.20375434 65.56749958 58.4866237 64.79125977 59.76977539 C60.94101163 66.13376019 57.07701861 72.48907663 53.12890625 78.79296875 C52.59467041 79.64656982 52.06043457 80.5001709 51.51000977 81.37963867 C49.06983258 84.90714461 48.00129576 86.37357627 43.6875 87.1875 C38.53542026 86.31426615 37.01432522 83.62945454 34 79.5625 C32.32084761 77.02015162 30.80635866 74.40459752 29.3125 71.75 C28.45852674 70.26476413 27.60299859 68.78042143 26.74609375 67.296875 C26.30378418 66.52923828 25.86147461 65.76160156 25.40576172 64.97070312 C21.39255303 58.09569609 17.16674314 51.34509262 13 44.5625 C12.98541748 45.80338379 12.97083496 47.04426758 12.95581055 48.32275391 C12.89769277 52.94120621 12.82046053 57.55917784 12.73754883 62.17724609 C12.70436287 64.17326029 12.67631132 66.16936689 12.65356445 68.16552734 C12.61990207 71.0404384 12.56758023 73.91450743 12.51171875 76.7890625 C12.50213387 78.12065903 12.50213387 78.12065903 12.49235535 79.47915649 C12.37278203 84.55598832 11.84469529 88.17867302 9 92.5625 C5.91359546 94.53436957 4.11496954 94.56653402 0.4375 94.4375 C-3.31119446 93.48328686 -4.64009442 92.55776478 -7 89.5625 C-8.5359976 86.49050479 -8.17375888 83.26001154 -8.19287109 79.88745117 C-8.20104858 79.0953978 -8.20922607 78.30334442 -8.21765137 77.48728943 C-8.24251118 74.8600236 -8.25902265 72.23281181 -8.2734375 69.60546875 C-8.27876118 68.70887354 -8.28408485 67.81227833 -8.28956985 66.88851357 C-8.31630374 62.14305094 -8.33567803 57.39761465 -8.35009766 52.65209961 C-8.36674802 47.74907433 -8.41152808 42.84672089 -8.4624691 37.9439497 C-8.49611507 34.1752698 -8.50767214 30.40674991 -8.51332474 26.63793373 C-8.52004436 24.83059872 -8.53528494 23.0232745 -8.55921555 21.21608543 C-8.59081487 18.68540983 -8.59091237 16.15655328 -8.58349609 13.62573242 C-8.59990143 12.88009033 -8.61630676 12.13444824 -8.63320923 11.36621094 C-8.58604257 7.43147821 -8.12297035 5.71791879 -5.65103149 2.59370422 C-3 0.5625 -3 0.5625 0 0 Z " fill="#2E3D76" transform="translate(119,322.4375)"/>
<path d="M0 0 C0.8559375 0.42410156 1.711875 0.84820312 2.59375 1.28515625 C14.25413748 7.58949225 19.9445096 17.00566912 24.109375 29.265625 C27.13980421 41.97216151 25.82273313 56.34349926 19.45703125 67.76953125 C12.27757973 78.72764147 2.53379461 85.36769385 -10 89 C-26.20795626 91.27866959 -40.36995727 88.9253573 -53.640625 79.03125 C-62.43658678 71.01316239 -67.56745582 59.97546 -68.8515625 48.21875 C-69.5173641 33.78136802 -66.46881621 21.15345223 -57 10 C-43.16221051 -4.72962208 -18.10698128 -9.68723498 0 0 Z M-42 22 C-48.23463539 30.30678826 -50.05096513 38.70054172 -49 49 C-47.06680238 56.73279049 -43.3360516 62.84796249 -36.8828125 67.5390625 C-29.25574886 72.01527362 -20.87472151 72.47301277 -12.3515625 70.3359375 C-5.03287086 67.46341348 0.11275463 62.42162253 3.375 55.3125 C7.12945913 46.12223699 6.5819092 38.1709227 3 29 C-0.39867277 22.68817913 -6.02874936 17.04183301 -12.859375 14.47265625 C-23.57434411 12.10675979 -34.13224652 14.13224652 -42 22 Z " fill="#2E3D76" transform="translate(521,327)"/>
<path d="M0 0 C10.65159058 6.90827141 17.83129988 15.98336153 21.0859375 28.3203125 C23.8507563 41.97279708 22.40379427 55.85547944 15.11328125 67.96484375 C7.64867132 78.60273499 -2.90359704 85.42043791 -15.66015625 87.9921875 C-30.57024485 89.77663959 -44.28549721 86.98256859 -56.1875 77.68359375 C-65.50567096 69.42530954 -71.10699081 58.19774204 -71.8984375 45.7421875 C-72.26603904 31.74036036 -69.7384156 19.64001172 -60.66015625 8.4921875 C-44.92280326 -7.21830994 -19.48394277 -11.04376198 0 0 Z M-45.59765625 21.3671875 C-51.18536572 28.44057031 -52.85338367 35.56962745 -52.66015625 44.4921875 C-51.08977218 53.74577295 -46.72736877 59.80019892 -39.85546875 65.9765625 C-33.24106289 70.54309182 -25.37129532 70.30746212 -17.66015625 69.4921875 C-9.65001457 67.09342849 -4.45920944 62.45175987 -0.41015625 55.27734375 C3.49344863 46.91441245 3.85784541 37.80666267 0.71484375 29.1171875 C-2.93079244 21.26504802 -7.62036859 16.68067472 -15.66015625 13.4921875 C-26.87373644 9.75432744 -37.69173984 12.88359453 -45.59765625 21.3671875 Z " fill="#2E3D76" transform="translate(302.66015625,328.5078125)"/>
<path d="M0 0 C3.38031589 1.18767855 3.93216817 1.89825225 6 5 C6.28710938 7.75561523 6.28710938 7.75561523 6.34375 11.05859375 C6.37339844 12.24904297 6.40304687 13.43949219 6.43359375 14.66601562 C6.45550781 15.91060547 6.47742188 17.15519531 6.5 18.4375 C6.5433999 20.89469997 6.59512839 23.35177072 6.65625 25.80859375 C6.68428711 27.44526001 6.68428711 27.44526001 6.71289062 29.11499023 C6.99560864 31.95587352 7.44013572 33.63156006 9 36 C11.32058272 37.16029136 12.70978774 37.14450313 15.29443359 37.17700195 C16.1823056 37.18983719 17.07017761 37.20267242 17.98495483 37.21589661 C18.94640411 37.22328354 19.90785339 37.23067047 20.8984375 37.23828125 C22.37819565 37.25038887 22.37819565 37.25038887 23.8878479 37.26274109 C25.97762288 37.27658538 28.06742051 37.28730598 30.15722656 37.29516602 C33.35525216 37.31239362 36.55224805 37.3562786 39.75 37.40039062 C41.77863822 37.41051609 43.80728524 37.41903265 45.8359375 37.42578125 C47.27203873 37.45204338 47.27203873 37.45204338 48.7371521 37.47883606 C53.95378125 37.48301187 53.95378125 37.48301187 58.60595703 35.35595703 C60.3863634 32.34703909 60.48334954 30.36845627 60.46875 26.87890625 C60.48292969 25.69619141 60.49710937 24.51347656 60.51171875 23.29492188 C60.50391851 20.81054684 60.49610605 18.32617184 60.48828125 15.84179688 C60.50246094 14.65779297 60.51664062 13.47378906 60.53125 12.25390625 C60.52673828 11.17439697 60.52222656 10.0948877 60.51757812 8.98266602 C61.11258589 5.30391605 62.43848173 3.65432258 65 1 C68.14911479 -0.57455739 70.52008816 -0.34799118 74 0 C76.55873396 1.6284512 78.17101412 2.6867119 80 5 C80.60485725 7.91762869 80.81507053 10.0131554 80.76049805 12.92382812 C80.76940567 13.70656601 80.77831329 14.48930389 80.78749084 15.29576111 C80.80874738 17.8751134 80.78648398 20.45195978 80.76171875 23.03125 C80.76322155 24.82816828 80.76665252 26.6250859 80.77192688 28.42199707 C80.77625649 32.18482124 80.75943489 35.94678786 80.72729492 39.70947266 C80.68751327 44.5285468 80.69681439 49.3460131 80.72152996 54.16513824 C80.73572409 57.87474711 80.72561768 61.58398146 80.70801735 65.29356384 C80.70217426 67.07013555 80.70346 68.84674569 80.71204185 70.62330627 C80.72004897 73.10845869 80.69575601 75.59126862 80.6628418 78.07617188 C80.67566696 79.1735392 80.67566696 79.1735392 80.68875122 80.29307556 C80.5990187 84.22540614 80.10790436 85.86779059 77.58747864 88.95593262 C74.34697585 91.5158788 72.89074499 91.68044818 68.93359375 91.43359375 C65.89381354 90.75194607 64.13303956 89.19767713 62 87 C60.64000068 84.28000137 60.85532103 82.08082113 60.82421875 79.0390625 C60.78844727 77.24855469 60.78844727 77.24855469 60.75195312 75.421875 C60.70911988 72.89860754 60.67779594 70.37511743 60.65820312 67.8515625 C60.63048828 66.6553125 60.60277344 65.4590625 60.57421875 64.2265625 C60.55963623 63.12908691 60.54505371 62.03161133 60.5300293 60.90087891 C60.17069638 57.96973892 60.17069638 57.96973892 58.58129883 55.63964844 C54.57786904 53.09665833 50.77222316 53.46719251 46.125 53.5390625 C45.16352051 53.53997894 44.20204102 53.54089539 43.21142578 53.5418396 C41.18061378 53.54787583 39.1498107 53.56362248 37.11914062 53.58837891 C34.01138486 53.62486633 30.90482253 53.62939833 27.796875 53.62890625 C25.82290637 53.63873845 23.84894581 53.65039589 21.875 53.6640625 C20.94574707 53.66628815 20.01649414 53.66851379 19.05908203 53.67080688 C17.75753174 53.68994644 17.75753174 53.68994644 16.4296875 53.70947266 C15.66897949 53.71709625 14.90827148 53.72471985 14.12451172 53.73257446 C11.69092352 54.03890538 10.07946601 54.71103102 8 56 C6.61565162 58.76869675 6.87260614 61.04954691 6.859375 64.14453125 C6.84003906 65.37880859 6.82070313 66.61308594 6.80078125 67.88476562 C6.76708059 70.49138235 6.74870974 73.09824487 6.74609375 75.70507812 C6.72160156 76.94322266 6.69710938 78.18136719 6.671875 79.45703125 C6.6625293 80.59116455 6.65318359 81.72529785 6.64355469 82.89379883 C5.80993156 86.91739026 4.12694843 88.42490072 1 91 C-1.76691 91.84369794 -4.18748668 91.63068481 -7 91 C-9.8100346 89.20636089 -11.50940468 87.98119065 -13 85 C-13.11363273 82.52459719 -13.16780074 80.0766561 -13.17700195 77.6003418 C-13.18357315 76.83754913 -13.19014435 76.07475647 -13.19691467 75.28884888 C-13.21666062 72.75897121 -13.22831315 70.22915295 -13.23828125 67.69921875 C-13.24235678 66.83572123 -13.2464323 65.9722237 -13.25063133 65.08255959 C-13.27149767 60.51215478 -13.2857969 55.94178005 -13.29516602 51.37133789 C-13.30623131 46.65001113 -13.34063076 41.92915558 -13.38033772 37.20799541 C-13.40648064 33.57828392 -13.41485577 29.94868508 -13.41844749 26.31888771 C-13.42331954 24.57855866 -13.43495114 22.83823484 -13.45348549 21.09799767 C-13.47782807 18.66089912 -13.4769213 16.22502464 -13.4699707 13.7878418 C-13.48278076 13.07025192 -13.49559082 12.35266205 -13.50878906 11.61332703 C-13.45886649 6.80569988 -12.40714005 4.37483971 -9 1 C-5.97562661 -0.5121867 -3.33758466 -0.17263369 0 0 Z " fill="#2E3D76" transform="translate(355,324)"/>
<path d="M0 0 C1.28828705 -0.00637985 2.5765741 -0.0127597 3.90390015 -0.01933289 C5.31695519 -0.02086165 6.73001073 -0.02197556 8.14306641 -0.02270508 C9.58794183 -0.02591755 11.03281692 -0.02928162 12.47769165 -0.03279114 C15.50906122 -0.03878427 18.54040227 -0.04063088 21.57177734 -0.04003906 C25.45455536 -0.03993751 29.33715024 -0.05358196 33.21988487 -0.07081127 C36.20532062 -0.08193568 39.19071218 -0.08395812 42.17616653 -0.08342934 C43.60748551 -0.08460909 45.03880564 -0.0890306 46.47010422 -0.0967617 C48.47353508 -0.10656853 50.47701954 -0.1024175 52.48046875 -0.09765625 C54.19017349 -0.09979378 54.19017349 -0.09979378 55.93441772 -0.10197449 C58.82311615 0.14134582 60.4754691 0.54767082 62.86962891 2.14526367 C64.43663333 5.27927252 64.72127451 8.77681463 63.86962891 12.14526367 C61.69110106 14.59457382 59.89138668 15.97560201 56.61401367 16.51980591 C53.79325321 16.67158634 50.99523694 16.69863618 48.17041016 16.68432617 C47.13901413 16.69611908 46.1076181 16.70791199 45.04496765 16.72006226 C41.75720044 16.75532073 38.47006979 16.76449493 35.18212891 16.77026367 C31.88366684 16.786582 28.58549012 16.80854587 25.28715515 16.84188843 C23.23613355 16.86158942 21.18498056 16.87084571 19.13386536 16.86880493 C18.20917953 16.87576385 17.28449371 16.88272278 16.33178711 16.88989258 C15.10864555 16.89178085 15.10864555 16.89178085 13.86079407 16.89370728 C11.6384683 16.96782315 11.6384683 16.96782315 9.86962891 19.14526367 C9.64410653 21.83688793 9.545296 24.39196112 9.55712891 27.08276367 C9.54101562 27.81172852 9.52490234 28.54069336 9.50830078 29.29174805 C9.45379572 33.2800524 9.45379572 33.2800524 11 36.85253906 C13.71781497 38.73172818 15.8658133 38.53096118 19.14697266 38.55151367 C20.38253906 38.57342773 21.61810547 38.5953418 22.89111328 38.61791992 C24.18339844 38.62694336 25.47568359 38.6359668 26.80712891 38.64526367 C29.35803901 38.66312898 31.90890029 38.69382375 34.45947266 38.73901367 C36.15898071 38.74964844 36.15898071 38.74964844 37.89282227 38.76049805 C41.15904865 39.18267247 42.54427146 39.85294181 44.86962891 42.14526367 C45.40087891 44.30151367 45.40087891 44.30151367 45.36962891 46.64526367 C45.37994141 47.41870117 45.39025391 48.19213867 45.40087891 48.98901367 C44.86962891 51.14526367 44.86962891 51.14526367 43.23706055 52.75463867 C40.16368548 54.55993354 38.01281606 54.52927843 34.45947266 54.55151367 C32.60418945 54.58438477 32.60418945 54.58438477 30.71142578 54.61791992 C28.10465514 54.63617644 25.49788431 54.65440553 22.89111328 54.67260742 C21.65554688 54.69452148 20.41998047 54.71643555 19.14697266 54.73901367 C17.44915649 54.74964844 17.44915649 54.74964844 15.71704102 54.76049805 C12.88767407 54.92335767 12.88767407 54.92335767 11 56.44018555 C9.04966403 59.38211782 9.48139002 62.74004341 9.55712891 66.14526367 C9.55390625 66.8697168 9.55068359 67.59416992 9.54736328 68.34057617 C9.58577591 72.12596657 9.72493487 73.92822261 11.86962891 77.14526367 C13.93429826 77.6067019 13.93429826 77.6067019 16.34765625 77.54589844 C17.27556976 77.55923721 18.20348328 77.57257599 19.15951538 77.58631897 C20.16471222 77.58643478 21.16990906 77.5865506 22.20556641 77.58666992 C23.75191269 77.6064817 23.75191269 77.6064817 25.32949829 77.62669373 C28.63456894 77.66770906 31.93936078 77.6892891 35.24462891 77.70776367 C38.54267032 77.7315407 41.8404485 77.75967297 45.13833618 77.79954529 C47.19274747 77.82391457 49.24729824 77.83876312 51.30184937 77.84315491 C52.2360672 77.85334152 53.17028503 77.86352814 54.1328125 77.87402344 C55.36286514 77.88043602 55.36286514 77.88043602 56.61776733 77.88697815 C59.12696738 78.17478005 60.73619459 78.80701583 62.86962891 80.14526367 C64.43663333 83.27927252 64.72127451 86.77681463 63.86962891 90.14526367 C60.13056832 93.8195748 57.69904265 94.64619584 52.50634766 94.64697266 C51.24153564 94.65635361 49.97672363 94.66573456 48.67358398 94.67539978 C47.30142538 94.66492109 45.92927333 94.65355202 44.55712891 94.64135742 C43.14135667 94.64151251 41.725584 94.6430031 40.30981445 94.64576721 C37.34746453 94.64714934 34.38559988 94.6346253 31.42333984 94.61181641 C27.63361663 94.58343163 23.84469923 94.58617124 20.05491638 94.59890652 C17.13286504 94.60587455 14.21099867 94.59806172 11.28897095 94.58564949 C9.89198517 94.58114587 8.49497946 94.58078866 7.09799194 94.58471489 C5.14293126 94.58763779 3.18787472 94.56892178 1.23291016 94.54931641 C0.12214111 94.54391342 -0.98862793 94.53851044 -2.13305664 94.53294373 C-5.53194258 94.09332342 -7.42225035 93.22470535 -10.13037109 91.14526367 C-11.34474536 87.50214088 -11.28583556 84.1501919 -11.29150391 80.35668945 C-11.29646881 79.56449005 -11.30143372 78.77229065 -11.30654907 77.95608521 C-11.32115925 75.33424004 -11.32797055 72.71245537 -11.33349609 70.09057617 C-11.33924819 68.26838174 -11.34500592 66.44618732 -11.35076904 64.62399292 C-11.36127557 60.80246702 -11.36712061 56.98096214 -11.37060547 53.15942383 C-11.3760915 48.26446122 -11.40012329 43.3697766 -11.42857742 38.4749012 C-11.44720714 34.71051218 -11.45240957 30.94619011 -11.45394135 27.18175888 C-11.45696731 25.37725173 -11.46499396 23.57274574 -11.47812653 21.76828384 C-11.49519519 19.24285001 -11.493305 16.71809518 -11.48681641 14.19262695 C-11.49603119 13.44855591 -11.50524597 12.70448486 -11.51473999 11.93786621 C-11.47908304 7.50408829 -10.87177201 4.66803536 -8.13037109 1.14526367 C-5.35921501 -0.24031437 -3.10094679 0.01038487 0 0 Z " fill="#2E3D76" transform="translate(694.13037109375,322.854736328125)"/>
</svg>
