<?xml version="1.0" encoding="UTF-8"?>
<svg version="1.1" xmlns="http://www.w3.org/2000/svg" width="1080" height="1080">
<path d="M0 0 C356.4 0 712.8 0 1080 0 C1080 356.4 1080 712.8 1080 1080 C723.6 1080 367.2 1080 0 1080 C0 723.6 0 367.2 0 0 Z " fill="#2E3D76" transform="translate(0,0)"/>
<path d="M0 0 C10.1869976 3.45943424 17.10390336 11.36358958 23.796875 19.46484375 C25.96757155 21.70295324 27.84269247 23.1121953 30.68359375 24.41015625 C33.82973458 24.31553547 35.17722435 23.87824718 37.4921875 21.73828125 C38.29849609 20.70960938 38.29849609 20.70960938 39.12109375 19.66015625 C42.07436674 16.06626005 45.06596766 13.31998593 48.68359375 10.41015625 C49.52921875 9.56453125 50.37484375 8.71890625 51.24609375 7.84765625 C58.16746472 0.92628528 58.16746472 0.92628528 62.68359375 0.41015625 C63.83859375 0.26578125 64.99359375 0.12140625 66.18359375 -0.02734375 C80.83564585 0.45283274 91.11367539 14.18700339 100.43359375 23.84765625 C102.76357025 26.23543474 105.09789443 28.61885782 107.43438721 31.0002594 C108.87725609 32.47375401 110.31569757 33.95160306 111.74871826 35.43467712 C115.65407052 39.45482797 119.66824055 43.24734082 123.93157959 46.88697815 C126.48509238 49.10696864 128.8194613 51.48905675 131.18359375 53.91015625 C135.00282659 57.77182501 138.88436841 61.4616602 143.02734375 64.97265625 C143.8471875 65.68421875 143.8471875 65.68421875 144.68359375 66.41015625 C145.20474762 66.79917618 145.72590149 67.18819611 146.2628479 67.58900452 C148.39454689 70.32147585 148.0649581 72.55561778 148.07177734 75.98608398 C148.07966278 76.98195274 148.07966278 76.98195274 148.08770752 77.99794006 C148.10092587 80.19678192 148.09215457 82.39490049 148.08203125 84.59375 C148.08405363 86.13013344 148.08696643 87.66651595 148.09072876 89.20289612 C148.09515636 92.43019713 148.08871525 95.65724939 148.07470703 98.88452148 C148.05774393 102.98969191 148.06737062 107.09426829 148.08542442 111.19941616 C148.09636178 114.37822284 148.09276863 117.55689322 148.08504105 120.73570442 C148.08305961 122.24692927 148.08542478 123.75816708 148.09247971 125.26937675 C148.1467269 140.17584118 146.09129921 153.40078474 136.37109375 165.22265625 C122.88305823 176.20128981 109.05567178 179.94389145 91.68359375 178.41015625 C80.45583459 176.18725816 71.14166425 168.9624616 64.21875 160.07421875 C59.04498601 151.09582933 58.16300538 143.5061118 58.35546875 133.21484375 C58.3608209 131.85499895 58.36322136 130.49513971 58.362854 129.13528442 C58.36544642 123.41778364 58.41121466 117.70125897 58.49462891 111.984375 C59.04329143 87.24459496 59.04329143 87.24459496 47.59082031 65.97949219 C45.63388333 64.05801711 43.65309906 62.45321095 41.43359375 60.84765625 C40.74007812 60.29142578 40.0465625 59.73519531 39.33203125 59.16210938 C35.88722018 56.2157198 35.88722018 56.2157198 31.64257812 55.61889648 C28.31887573 56.96138395 25.97430075 59.57933632 23.43359375 62.03515625 C22.27817314 63.12978236 21.1219246 64.22353524 19.96484375 65.31640625 C19.40539062 65.8475 18.8459375 66.37859375 18.26953125 66.92578125 C15.6155903 69.40976539 12.85075644 71.76057768 10.07421875 74.10546875 C8.11312508 75.94537124 7.7044849 77.07127344 7.53883362 79.75836182 C7.52456581 81.23390533 7.52456581 81.23390533 7.51000977 82.73925781 C7.49651993 83.85512268 7.48303009 84.97098755 7.46913147 86.1206665 C7.45869308 87.33510437 7.4482547 88.54954224 7.4375 89.80078125 C7.4045242 92.37370084 7.37131327 94.94661743 7.33789062 97.51953125 C7.28971802 101.57417711 7.24604327 105.62885213 7.20678711 109.68359375 C7.16665501 113.59779555 7.11517365 117.51173079 7.0625 121.42578125 C7.05408585 122.61592834 7.04567169 123.80607544 7.03700256 125.0322876 C6.81653446 140.31603033 4.94066319 151.93516539 -3.50390625 164.72265625 C-14.11192756 174.85920994 -26.75417221 179.0411942 -41.21362305 178.81274414 C-53.36986665 178.32538991 -63.72908072 173.32258627 -72.72265625 165.15625 C-82.50857902 154.43490815 -84.29350183 140.36813712 -84.6328125 126.4140625 C-84.65391083 125.67121506 -84.67500916 124.92836761 -84.69674683 124.16300964 C-84.8775692 117.6103085 -85.02149538 111.05643895 -85.15690613 104.50265503 C-85.25982068 99.57756839 -85.40939488 94.65720462 -85.58984375 89.734375 C-85.64616131 87.54301004 -85.70097596 85.35160565 -85.75390625 83.16015625 C-85.80039307 82.18763916 -85.84687988 81.21512207 -85.89477539 80.21313477 C-86.03530073 71.1480457 -81.7275624 65.89376132 -75.75390625 59.47265625 C-72.51681527 56.34529716 -69.06430612 53.7010637 -65.44140625 51.03515625 C-58.57842252 45.97108747 -52.70050419 40.01901005 -46.76025391 33.91845703 C-42.75859677 29.81293052 -38.68255748 25.93578353 -34.33227539 22.20336914 C-29.82762091 18.19626158 -25.69513338 13.78521167 -21.49609375 9.46289062 C-9.73532399 -2.47897795 -9.73532399 -2.47897795 0 0 Z " fill="#FCFCFD" transform="translate(495.31640625,321.58984375)"/>
<path d="M0 0 C7.26927393 6.42400952 14.40720305 17.01069125 15.14526367 26.95776367 C15.17002177 29.36781819 15.18566156 31.77730859 15.1875 34.1875 C15.19974609 35.01314453 15.21199219 35.83878906 15.22460938 36.68945312 C15.2515197 48.07252223 11.69080899 59.48083173 3.6875 67.875 C2.48602654 68.94849041 1.25584334 69.99065484 0 71 C-0.64453125 71.53238281 -1.2890625 72.06476563 -1.953125 72.61328125 C-12.44256401 80.44151073 -25.23176681 82.1777223 -38 81 C-41.53269592 80.3630368 -44.68801051 79.37258625 -48 78 C-48.83015625 77.67128906 -49.6603125 77.34257813 -50.515625 77.00390625 C-61.38179773 72.18745852 -68.34109829 63.78654193 -73 53 C-77.4794566 41.16298184 -75.96278777 26.35602612 -71 15 C-64.53228185 2.54483979 -55.90357792 -4.13869922 -42.68359375 -8.8203125 C-27.86493684 -12.69554138 -12.10917343 -9.26362153 0 0 Z " fill="#FCFCFD" transform="translate(619,543)"/>
<path d="M0 0 C7.79052696 6.79474531 16.33354636 16.11276961 17.17700195 26.96484375 C17.71270892 50.22007544 17.71270892 50.22007544 13 58.6875 C12.63777344 59.39390625 12.27554688 60.1003125 11.90234375 60.828125 C6.74175299 69.99473368 -0.45000538 75.60789065 -10 79.6875 C-10.61101562 80.0071875 -11.22203125 80.326875 -11.8515625 80.65625 C-20.89633762 84.95949103 -33.78361021 83.50773118 -43.12109375 80.7890625 C-55.54474094 76.03537389 -63.3174509 68.99636653 -68.95703125 57.08203125 C-69.30121094 56.29183594 -69.64539063 55.50164063 -70 54.6875 C-70.34385742 53.92276367 -70.68771484 53.15802734 -71.04199219 52.37011719 C-74.42459942 42.89812731 -73.63018648 28.04740703 -69.875 18.75 C-68.9739666 17.03122199 -68.01813008 15.33961082 -67 13.6875 C-66.54238281 12.86378906 -66.08476562 12.04007813 -65.61328125 11.19140625 C-59.80096448 1.49359553 -49.58925247 -4.74927996 -38.75 -7.625 C-25.17810129 -10.05365556 -11.28117839 -8.35075345 0 0 Z " fill="#FCFCFD" transform="translate(405,541.3125)"/>
<path d="M0 0 C8.69269281 5.05259451 15.54557207 13.417649 22.5012207 20.54223633 C30.44562256 28.66207754 38.52480722 36.07287676 47.58154297 42.96435547 C54.07774538 47.98188629 58.54493025 54.83497031 60 63 C60.2133451 67.28617617 60.15350063 71.55062374 60.04782104 75.83981323 C59.99866813 78.06016374 59.97645541 80.27941456 59.96118164 82.50024414 C59.93234269 86.44604128 59.87027605 90.39033116 59.79248047 94.33544922 C59.76403613 95.95219944 59.74294025 97.56909479 59.72900391 99.18603516 C59.62437851 110.74365422 59.47373003 121.43924178 51.25 130.4375 C43.99255111 136.91071906 38.32471531 138.76163432 28.4765625 138.4453125 C21.56285047 137.5597359 16.28021941 134.73490146 11.5625 129.625 C6.29711322 122.78297198 4.90345876 115.59884907 4.79467773 107.09838867 C4.78477814 106.42466217 4.77487854 105.75093567 4.76467896 105.05679321 C4.73325077 102.8438867 4.708381 100.63095876 4.68359375 98.41796875 C4.66300806 96.87811241 4.64201117 95.33826151 4.62062073 93.79841614 C4.56556682 89.75595525 4.51608436 85.71344478 4.46777344 81.67089844 C4.41743621 77.54162206 4.36181409 73.41241721 4.30664062 69.28320312 C4.19926324 61.18886266 4.0977734 53.09446214 4 45 C3.39929688 44.71511719 2.79859375 44.43023437 2.1796875 44.13671875 C-3.06777042 41.40014123 -6.65897292 37.30633461 -10.36328125 32.82421875 C-12.72451514 30.19248551 -15.40555052 27.99483526 -18.09765625 25.7109375 C-20.72016944 23.35229114 -22.83241658 20.77721626 -25 18 C-22.66723345 12.31629808 -17.57978806 8.87043743 -13 5 C-12.33871094 4.44054687 -11.67742188 3.88109375 -10.99609375 3.3046875 C-7.25281134 0.37370575 -4.71471706 -1.05840587 0 0 Z " fill="#2F3E77" transform="translate(566,344)"/>
<path d="M0 0 C3.69750947 2.6538576 6.832933 5.74201242 10 9 C11.10408203 10.10794922 11.10408203 10.10794922 12.23046875 11.23828125 C17.00980555 16.30380588 17.00980555 16.30380588 16.97265625 18.94140625 C15.59341193 21.86052976 13.6622414 23.48465864 11.25 25.625 C10.52659424 26.27251221 10.52659424 26.27251221 9.78857422 26.93310547 C7.12853436 29.27580724 4.40204278 31.48269673 1.5546875 33.59375 C0.98331055 34.01833496 0.41193359 34.44291992 -0.17675781 34.88037109 C-1.79127958 36.06364194 -3.42259063 37.22390342 -5.0546875 38.3828125 C-9.65968799 42.47478907 -12.62004081 45.99319866 -13.41482544 52.28271484 C-13.52862591 56.31231442 -13.48305961 60.31128075 -13.3828125 64.33984375 C-13.36583107 65.83139818 -13.3515454 67.32298549 -13.33981323 68.81459045 C-13.30389321 72.72587879 -13.24051364 76.63616361 -13.16845703 80.54693604 C-13.05477135 86.80076633 -12.96971071 93.05466855 -12.91006088 99.30923653 C-12.88340307 101.47926913 -12.83678361 103.64821533 -12.7883606 105.81785583 C-12.64576782 114.72770527 -12.83082106 123.71154487 -19.31640625 130.58203125 C-26.4954254 136.62839773 -33.23742904 138.95575985 -42.625 138.5234375 C-49.98582374 137.38182826 -56.41354109 133.93541742 -61 128 C-65.53110102 120.54874186 -65.78105057 112.95588755 -65.953125 104.4296875 C-65.96942711 103.73954685 -65.98572922 103.0494062 -66.00252533 102.3383522 C-66.08547427 98.68362747 -66.14288113 95.02948049 -66.18066406 91.37402344 C-66.21606296 88.38208596 -66.29937109 85.39761578 -66.42675781 82.40820312 C-67.51517968 56.31545745 -67.51517968 56.31545745 -61.56054688 48.81347656 C-58.33588024 45.51820265 -54.82403287 42.86950602 -50.96569824 40.36212158 C-47.91534734 38.24839492 -45.5430122 35.69646169 -43 33 C-40.17657747 30.10227688 -37.29254714 27.36582911 -34.2265625 24.73046875 C-28.91701002 20.12977018 -24.07194954 15.08863044 -19.1796875 10.05273438 C-7.64755987 -1.65697131 -7.64755987 -1.65697131 0 0 Z " fill="#2F3E76" transform="translate(496,344)"/>
<path d="M0 0 C6.16314622 1.35798137 9.86539832 6.17149399 13.37475586 11.25805664 C14.97651065 13.89201419 16.50013109 16.55677878 18 19.25 C19.11681153 21.19962682 20.23664605 23.14752483 21.359375 25.09375 C21.91302734 26.05539062 22.46667969 27.01703125 23.03710938 28.0078125 C25.89508661 32.86468268 28.9776706 37.56963129 32.08520508 42.26928711 C34.78857921 46.3685245 37.2920599 50.52504948 39.6875 54.8125 C40.3475 54.8125 41.0075 54.8125 41.6875 54.8125 C43.40545168 52.40798341 44.99667875 50.00186843 46.5625 47.5 C47.0457373 46.74033936 47.52897461 45.98067871 48.02685547 45.19799805 C49.58756547 42.74061929 51.13798004 40.27694718 52.6875 37.8125 C53.71309862 36.18982406 54.73913659 34.56742572 55.765625 32.9453125 C57.78528716 29.75090278 59.80359501 26.55564462 61.8203125 23.359375 C62.30145508 22.59689453 62.78259766 21.83441406 63.27832031 21.04882812 C64.19584312 19.59274551 65.11193361 18.13575904 66.02636719 16.67773438 C67.24203357 14.74046923 68.46400954 12.80732991 69.6875 10.875 C70.368125 9.79347656 71.04875 8.71195313 71.75 7.59765625 C73.56575559 4.98750758 75.25578673 2.85745967 77.6875 0.8125 C81.94893432 0.19265501 83.93138322 0.31938036 87.5625 2.6875 C91.12115318 6.24615318 90.84094294 9.15159147 90.84863281 13.93676758 C90.85608017 15.03706551 90.85608017 15.03706551 90.86367798 16.15959167 C90.87831107 18.592081 90.88510397 21.02450509 90.890625 23.45703125 C90.89637612 25.14613345 90.90213386 26.83523562 90.90789795 28.52433777 C90.91841162 32.06936955 90.92425168 35.61437864 90.92773438 39.15942383 C90.93321569 43.69906705 90.95723427 48.23840981 90.98570633 52.77795887 C91.00434409 56.26870088 91.00953894 59.75937075 91.01107025 63.25015831 C91.01409544 64.92348559 91.0221195 66.59681165 91.03525543 68.2700901 C91.0523378 70.61364091 91.05043048 72.95646078 91.04394531 75.30004883 C91.0531601 75.98958649 91.06237488 76.67912415 91.0718689 77.38955688 C91.02575657 82.71736552 89.610846 85.889154 85.875 89.625 C82.8347735 91.27540867 81.10800168 91.35978027 77.6875 90.8125 C72.11664772 87.42423517 72.11664772 87.42423517 71.12457275 83.69833374 C70.89630826 81.08908017 70.85677506 78.5370963 70.8828125 75.91796875 C70.86225296 74.49693596 70.86225296 74.49693596 70.84127808 73.04719543 C70.80398383 70.0309803 70.80769258 67.01641295 70.8125 64 C70.79437285 61.95114614 70.7735701 59.90231409 70.75 57.85351562 C70.69815417 52.83956769 70.6830691 47.82670129 70.6875 42.8125 C70.20917725 43.60309814 69.73085449 44.39369629 69.23803711 45.20825195 C67.42929532 48.19648459 65.61942612 51.18402863 63.80883789 54.17114258 C63.03170626 55.45375434 62.25499958 56.7366237 61.47875977 58.01977539 C58.89419505 62.29174176 56.29601375 66.55511989 53.6875 70.8125 C53.02250488 71.90224121 52.35750977 72.99198242 51.67236328 74.11474609 C50.75366455 75.59515381 50.75366455 75.59515381 49.81640625 77.10546875 C49.28217041 77.97067139 48.74793457 78.83587402 48.19750977 79.72729492 C46.6875 81.8125 46.6875 81.8125 43.6875 83.8125 C40.31146283 83.87619881 37.80186577 83.80109412 35.1862793 81.48071289 C31.4199624 76.9979244 28.5380226 72.35969636 25.8125 67.1875 C21.73213437 59.53509711 17.27867191 52.1655153 12.6875 44.8125 C12.67291748 45.90191895 12.65833496 46.99133789 12.64331055 48.11376953 C12.58513928 52.17317785 12.50790818 56.23204237 12.42504883 60.29101562 C12.3918878 62.04450627 12.36382858 63.79810138 12.34106445 65.55175781 C12.3073553 68.07922698 12.25503308 70.60574638 12.19921875 73.1328125 C12.18963387 74.30035568 12.18963387 74.30035568 12.17985535 75.4914856 C12.02911828 81.12915151 10.59770576 84.94719137 7.4375 89.6875 C4.47264402 91.59347884 2.11397553 91.219031 -1.3125 90.8125 C-6.99671053 87.75986842 -6.99671053 87.75986842 -8.3125 83.8125 C-8.4286866 81.33000498 -8.49048628 78.87444916 -8.50537109 76.39111328 C-8.51354858 75.63792816 -8.52172607 74.88474304 -8.53015137 74.10873413 C-8.55496013 71.61676829 -8.57150797 69.12485916 -8.5859375 66.6328125 C-8.59126118 65.78126461 -8.59658485 64.92971672 -8.60206985 64.05236435 C-8.62877927 59.54680024 -8.64816292 55.04126365 -8.66259766 50.53564453 C-8.67594898 46.80688003 -8.70382607 43.07866121 -8.74462891 39.35009766 C-8.79390914 34.84674162 -8.81871255 30.34388136 -8.82582474 25.84026718 C-8.8325415 24.12503522 -8.84777473 22.40981451 -8.87171555 20.69473648 C-8.90332799 18.29346203 -8.90341097 15.89410358 -8.89599609 13.49267578 C-8.91240143 12.78600769 -8.92880676 12.0793396 -8.94570923 11.35125732 C-8.89737287 7.52291233 -8.3956584 5.91707035 -5.98306274 2.88327026 C-3.3125 0.8125 -3.3125 0.8125 0 0 Z " fill="#FCFCFD" transform="translate(658.3125,534.1875)"/>
<path d="M0 0 C4.36917416 0.75330589 6.69702069 2.43506315 9.625 5.625 C11.63425578 8.65180031 13.28165177 11.83183571 14.9375 15.0625 C15.89854924 16.8718123 16.8634186 18.67910046 17.83203125 20.484375 C18.30463379 21.36544922 18.77723633 22.24652344 19.26416016 23.15429688 C22.04365596 28.20067246 25.21157097 32.9799331 28.39794922 37.77685547 C30.8461491 41.46425561 33.26744503 45.16909641 35.6875 48.875 C36.17734375 49.61516357 36.6671875 50.35532715 37.171875 51.11791992 C37.62175781 51.8060376 38.07164062 52.49415527 38.53515625 53.203125 C39.14049194 54.12206543 39.14049194 54.12206543 39.75805664 55.05957031 C40.625 56.625 40.625 56.625 40.625 58.625 C41.285 58.625 41.945 58.625 42.625 58.625 C42.88893555 58.07368408 43.15287109 57.52236816 43.42480469 56.9543457 C44.77401197 54.33579674 46.27749363 51.86025062 47.828125 49.35546875 C48.47225342 48.31221436 49.11638184 47.26895996 49.7800293 46.1940918 C50.47136963 45.0781665 51.16270996 43.96224121 51.875 42.8125 C53.32528466 40.46940777 54.77445707 38.12563178 56.22265625 35.78125 C56.58982254 35.18700729 56.95698883 34.59276459 57.33528137 33.98051453 C59.79359089 29.99410043 62.21664563 25.98798244 64.62109375 21.96875 C65.2440332 20.93081299 65.86697266 19.89287598 66.50878906 18.82348633 C67.68459024 16.86068775 68.85479621 14.89452321 70.01855469 12.92456055 C72.81830353 8.26324062 75.3851737 4.08230803 79.625 0.625 C83.1875 0.0625 83.1875 0.0625 86.625 0.625 C88.98997439 2.49208505 90.28530715 3.94561431 91.625 6.625 C91.73851865 9.03416116 91.79278874 11.41511281 91.80200195 13.82519531 C91.80857315 14.56687454 91.81514435 15.30855377 91.82191467 16.07270813 C91.84166145 18.53284808 91.85331428 20.9929269 91.86328125 23.453125 C91.86735678 24.29330925 91.8714323 25.1334935 91.87563133 25.99913788 C91.89649958 30.44750219 91.91079709 34.89583559 91.92016602 39.34423828 C91.9312223 43.93543664 91.96561074 48.52614925 92.00533772 53.11717606 C92.0315077 56.64999278 92.03985825 60.18269394 92.04344749 63.71559906 C92.04831377 65.40765406 92.05992898 67.09970388 92.07848549 68.79166412 C92.10288224 71.1639071 92.10191131 73.53489605 92.0949707 75.90722656 C92.10778076 76.60251968 92.12059082 77.29781281 92.13378906 78.01417542 C92.08102403 82.97810626 90.73086259 85.80105694 87.625 89.625 C84.42245853 91.22627074 82.17185436 91.03201607 78.625 90.625 C75.12032665 88.71651819 72.16843157 86.4035915 70.97537231 82.49884033 C70.72005556 79.99936138 70.68129768 77.58241809 70.72265625 75.0703125 C70.71036484 74.16876434 70.69807343 73.26721619 70.68540955 72.33834839 C70.65375852 69.47473002 70.66993278 66.61369717 70.6875 63.75 C70.67438637 61.80205948 70.6581442 59.85413734 70.63867188 57.90625 C70.59788547 53.14528392 70.59996849 48.38605658 70.625 43.625 C69.97635986 44.73254639 69.32771973 45.84009277 68.65942383 46.98120117 C59.16771612 63.16781113 59.16771612 63.16781113 54.3125 70.9375 C53.82716797 71.73349609 53.34183594 72.52949219 52.84179688 73.34960938 C50.22068136 77.53987592 47.88368012 80.91948557 43.625 83.625 C40.75 83.9375 40.75 83.9375 37.625 82.625 C32.19642905 76.84651514 28.3068097 69.9617181 24.5 63.0625 C23.4989646 61.26865492 22.49638104 59.47567282 21.4921875 57.68359375 C21.01620117 56.83394043 20.54021484 55.98428711 20.04980469 55.10888672 C18.00736317 51.548263 15.8304551 48.08667586 13.625 44.625 C13.61041748 45.67365234 13.59583496 46.72230469 13.58081055 47.80273438 C13.52247367 51.72429082 13.44524563 55.64529415 13.36254883 59.56640625 C13.32946491 61.25772061 13.30138241 62.94914099 13.27856445 64.640625 C13.24471164 67.08378939 13.19238492 69.52599655 13.13671875 71.96875 C13.13032883 72.71491577 13.1239389 73.46108154 13.11735535 74.2298584 C12.9698543 79.59617971 11.81313171 83.70888257 9.625 88.625 C7.28894072 90.55829044 5.75844805 90.60759373 2.75 91 C-1.22075164 90.5235098 -3.29696892 89.13037413 -6.375 86.625 C-7.55312144 83.09063567 -7.53808425 79.88226541 -7.55200195 76.20361328 C-7.55857315 75.45042816 -7.56514435 74.69724304 -7.57191467 73.92123413 C-7.59162234 71.42925922 -7.60330345 68.93734446 -7.61328125 66.4453125 C-7.61735678 65.59376461 -7.6214323 64.74221672 -7.62563133 63.86486435 C-7.64647942 59.35929355 -7.66078763 54.85375311 -7.67016602 50.34814453 C-7.68123907 45.69522499 -7.71565265 41.04278254 -7.75533772 36.39003181 C-7.78147915 32.81093455 -7.78985554 29.23195152 -7.79344749 25.65276718 C-7.79831841 23.93755743 -7.80994683 22.22235296 -7.82848549 20.50723648 C-7.85282931 18.10616401 -7.85192136 15.70633383 -7.8449707 13.30517578 C-7.85778076 12.59850769 -7.87059082 11.8918396 -7.88378906 11.16375732 C-7.84675882 7.6502613 -7.42020354 5.6981075 -5.55656433 2.68405151 C-3.375 0.625 -3.375 0.625 0 0 Z " fill="#FCFCFD" transform="translate(225.375,533.375)"/>
<path d="M0 0 C0.76828125 -0.03738281 1.5365625 -0.07476563 2.328125 -0.11328125 C6.05565754 0.54204302 7.32663541 1.33606789 9.75 4.3125 C10.45267597 8.43135229 10.40349647 12.5175159 10.375 16.6875 C10.375 18.92451706 10.38762207 21.1615767 10.4140625 23.3984375 C10.40842285 24.3889209 10.4027832 25.3794043 10.39697266 26.39990234 C10.81671844 29.86295016 12.0508999 32.29069338 13.75 35.3125 C19.65819071 35.36195048 25.56626084 35.39824364 31.47460938 35.42236328 C33.48439635 35.4324187 35.4941687 35.44606485 37.50390625 35.46337891 C40.39326588 35.48764724 43.28243202 35.49898771 46.171875 35.5078125 C47.06992859 35.51813507 47.96798218 35.52845764 48.89324951 35.53909302 C50.1541037 35.53931961 50.1541037 35.53931961 51.44042969 35.53955078 C52.54629425 35.54621262 52.54629425 35.54621262 53.67449951 35.55300903 C56.12363383 35.26920331 57.68818285 34.66160453 59.75 33.3125 C60.76539865 30.26630406 60.87443185 28.16809016 60.890625 24.98046875 C60.91962891 23.41135742 60.91962891 23.41135742 60.94921875 21.81054688 C60.98289036 19.61541692 61.00128802 17.419996 61.00390625 15.22460938 C61.21338518 6.24457831 61.21338518 6.24457831 64.015625 2.59375 C66.75673172 0.30688382 67.75401812 -0.49194306 71.25 -0.375 C71.9821875 -0.37886719 72.714375 -0.38273438 73.46875 -0.38671875 C76.94701022 0.67939183 78.46057194 2.51950741 80.75 5.3125 C81.23643089 8.01514861 81.41737975 10.08490833 81.36523438 12.77734375 C81.37078339 13.51131378 81.3763324 14.24528381 81.38204956 15.00149536 C81.39382332 17.41833588 81.36959659 19.83329173 81.34375 22.25 C81.34203819 23.93481358 81.3421053 25.61962983 81.34387207 27.30444336 C81.34222013 30.83180294 81.32354601 34.35852599 81.29199219 37.88574219 C81.25231467 42.40185729 81.24794766 46.91713906 81.25545502 51.43339539 C81.25852798 54.91133222 81.24639265 58.38908252 81.22932434 61.86697388 C81.22230468 63.53189931 81.21916855 65.19684588 81.22001648 66.86178589 C81.218214 69.19079626 81.19679518 71.51881747 81.16992188 73.84765625 C81.17285248 74.53248077 81.17578308 75.2173053 81.17880249 75.92288208 C81.10286397 80.19908985 80.35125008 82.90229432 77.75 86.3125 C75.49015891 87.44242055 73.95273513 87.61049956 71.4375 87.75 C70.67824219 87.81058594 69.91898438 87.87117187 69.13671875 87.93359375 C66.19724715 87.16865761 64.56701632 85.86841047 62.72973633 83.45874023 C60.56425105 78.71496225 61.17715314 73.23828953 61.25 68.125 C61.28311644 65.77755422 61.29456617 63.42967284 61.28125 61.08203125 C61.29736328 60.04667236 61.31347656 59.01131348 61.33007812 57.94458008 C60.9807092 55.18472158 60.9807092 55.18472158 58.80126953 53.47460938 C54.60155759 51.87510315 50.85640885 51.90156736 46.3984375 51.94921875 C45.50258942 51.94872025 44.60674133 51.94822174 43.68374634 51.94770813 C41.79597752 51.95004262 39.90820523 51.95973419 38.02050781 51.97631836 C35.12797326 51.99997568 32.23635715 51.99686654 29.34375 51.99023438 C27.507807 51.99580936 25.67186787 52.00291811 23.8359375 52.01171875 C22.97028168 52.01080734 22.10462585 52.00989594 21.21273804 52.00895691 C20.40825226 52.01848892 19.60376648 52.02802094 18.77490234 52.0378418 C17.71497574 52.04475288 17.71497574 52.04475288 16.63363647 52.05180359 C14.41845193 52.21908097 14.41845193 52.21908097 11.75 54.3125 C11.30523321 56.92682188 11.30523321 56.92682188 11.37890625 59.984375 C11.36150391 61.12390625 11.34410156 62.2634375 11.32617188 63.4375 C11.31711627 65.83853024 11.31185749 68.23957804 11.31054688 70.640625 C11.19297053 77.84116249 10.95197905 82.11052095 5.75 87.3125 C2.69618444 87.75416754 -0.20105642 87.79473087 -3.25 87.3125 C-6.25 84.875 -6.25 84.875 -8.25 82.3125 C-8.58 81.9825 -8.91 81.6525 -9.25 81.3125 C-9.36554073 79.0442479 -9.40972797 76.77234793 -9.42700195 74.5012207 C-9.43357315 73.78894821 -9.44014435 73.07667572 -9.44691467 72.34281921 C-9.46669854 69.97463892 -9.47832386 67.6065223 -9.48828125 65.23828125 C-9.49235678 64.43027761 -9.4964323 63.62227398 -9.50063133 62.78978539 C-9.52151764 58.51000598 -9.53580601 54.23025885 -9.54516602 49.95043945 C-9.5562125 45.53295863 -9.59058426 41.11598405 -9.63033772 36.69868183 C-9.6565164 33.30054299 -9.66485913 29.90252425 -9.66844749 26.50429344 C-9.67331331 24.87643213 -9.68492725 23.24857617 -9.70348549 21.62081337 C-9.72789592 19.33705603 -9.72690871 17.05460046 -9.7199707 14.77075195 C-9.72583694 13.47248978 -9.73170319 12.1742276 -9.73774719 10.83662415 C-8.88186024 4.65257651 -6.2862887 0.19774749 0 0 Z " fill="#FBFCFC" transform="translate(447.25,534.6875)"/>
<path d="M0 0 C1.13377075 0.00125885 2.2675415 0.0025177 3.43566895 0.0038147 C4.72380493 -0.00864288 6.01194092 -0.02110046 7.33911133 -0.03393555 C8.74175567 -0.0165587 10.1443849 0.00207736 11.54699707 0.0218811 C12.98901365 0.02291884 14.43103309 0.02188137 15.87304688 0.01885986 C18.89288668 0.01903914 21.91165666 0.03985691 24.93127441 0.07608032 C28.79868187 0.12145834 32.66452696 0.12254264 36.53212738 0.10904503 C39.50911301 0.10235623 42.48574352 0.11564213 45.46266174 0.1353035 C46.88837322 0.14299218 48.31412424 0.14531025 49.73985291 0.14213181 C51.73360072 0.14138865 53.72729556 0.16962356 55.7208252 0.1991272 C56.85459595 0.20834198 57.9883667 0.21755676 59.15649414 0.22705078 C62.73054546 0.86484759 63.91559368 1.87604143 66.07824707 4.7484436 C66.70324707 8.1859436 66.70324707 8.1859436 66.07824707 11.7484436 C62.68140964 15.55934326 60.3965644 17.0298754 55.28210449 17.39199829 C53.41626329 17.42613419 51.54981761 17.4342026 49.68371582 17.4203186 C48.20177483 17.43944305 48.20177483 17.43944305 46.68989563 17.45895386 C43.54821824 17.49517632 40.40761472 17.4979625 37.26574707 17.4984436 C34.10642617 17.52003186 30.94726813 17.54842599 27.78804016 17.58078003 C25.82495034 17.59859586 23.86177489 17.6088315 21.89860535 17.6109314 C21.01711319 17.61473816 20.13562103 17.61854492 19.22741699 17.62246704 C18.0587635 17.62316193 18.0587635 17.62316193 16.86650085 17.62387085 C15.0543731 17.55356486 15.0543731 17.55356486 14.07824707 18.7484436 C13.92572914 21.0156813 13.85632767 23.28875524 13.82824707 25.5609436 C13.80246582 26.80488892 13.77668457 28.04883423 13.75012207 29.33047485 C14.10662397 33.04403635 14.46774615 34.17565069 17.07824707 36.7484436 C19.79521903 37.32710972 19.79521903 37.32710972 22.88293457 37.2171936 C24.02375488 37.23137329 25.1645752 37.24555298 26.33996582 37.26016235 C28.74100757 37.25237519 31.14204924 37.24456286 33.54309082 37.23672485 C35.25818848 37.25799438 35.25818848 37.25799438 37.00793457 37.2796936 C38.57390381 37.27292603 38.57390381 37.27292603 40.17150879 37.26602173 C43.83156772 37.87346977 45.49202954 39.12655814 48.07824707 41.7484436 C48.70324707 45.2484436 48.70324707 45.2484436 48.07824707 48.7484436 C45.454532 51.4253441 43.78774866 52.63116064 40.06384277 53.24673462 C38.42548462 53.24951416 38.42548462 53.24951416 36.75402832 53.25234985 C35.56100098 53.27104126 34.36797363 53.28973267 33.13879395 53.30899048 C31.28351074 53.30995728 31.28351074 53.30995728 29.39074707 53.3109436 C26.92842407 53.31984203 24.46610378 53.34131948 22.00402832 53.37734985 C20.91517334 53.37807495 19.82631836 53.37880005 18.70446777 53.37954712 C17.40448853 53.56215088 17.40448853 53.56215088 16.07824707 53.7484436 C13.62542796 57.42767228 13.81000788 59.37103711 13.82824707 63.7484436 C13.82309082 64.9859436 13.81793457 66.2234436 13.81262207 67.4984436 C13.82573346 70.89517505 13.82573346 70.89517505 16.07824707 73.7484436 C18.0136679 74.2022079 18.0136679 74.2022079 20.26501465 74.13320923 C21.56195 74.14837585 21.56195 74.14837585 22.88508606 74.16384888 C23.82152451 74.16082764 24.75796295 74.1578064 25.72277832 74.1546936 C26.68471603 74.16552979 27.64665375 74.17636597 28.63774109 74.18753052 C31.72214434 74.221898 34.80617724 74.23740242 37.89074707 74.2484436 C41.93928088 74.26301009 45.98698677 74.29672546 50.03527832 74.3421936 C50.96564407 74.33917236 51.89600983 74.33615112 52.85456848 74.33303833 C57.71963821 74.38931593 61.16304134 74.51154418 65.07824707 77.7484436 C66.64254955 80.87704856 66.43451991 83.30447285 66.07824707 86.7484436 C63.51908695 89.36880282 61.83417229 90.61673899 58.20155334 91.24964905 C56.6198661 91.2498983 56.6198661 91.2498983 55.00622559 91.25015259 C53.80470352 91.25953354 52.60318146 91.26891449 51.36524963 91.27857971 C49.43074196 91.26172874 49.43074196 91.26172874 47.45715332 91.24453735 C46.11103741 91.24469247 44.76492106 91.24618361 43.41880798 91.24894714 C40.60187965 91.25032913 37.7854617 91.23780952 34.96862793 91.21499634 C31.36956029 91.18663882 27.77134185 91.18934386 24.17221165 91.20208645 C21.39337497 91.20906438 18.61473224 91.20122999 15.83592033 91.18882942 C13.86735509 91.18215668 11.89876248 91.18644519 9.93019104 91.19093323 C8.72551682 91.17824905 7.52084259 91.16556488 6.27966309 91.15249634 C5.22440933 91.14709335 4.16915558 91.14169037 3.08192444 91.13612366 C-0.50231407 90.67351146 -2.88742187 89.70493917 -5.92175293 87.7484436 C-7.62939758 84.34220239 -7.08420738 80.08777608 -7.09875488 76.32119751 C-7.10532608 75.57922623 -7.11189728 74.83725494 -7.1186676 74.07279968 C-7.13833826 71.62353404 -7.15004778 69.17432946 -7.16003418 66.7250061 C-7.16410971 65.886656 -7.16818523 65.04830589 -7.17238426 64.18455124 C-7.19321607 59.74914549 -7.20753158 55.31377045 -7.21691895 50.87832642 C-7.22799161 46.30287973 -7.26240938 41.72791824 -7.30209064 37.1526432 C-7.32825473 33.62840888 -7.33661046 30.1042904 -7.34020042 26.5799675 C-7.34506507 24.89349456 -7.35667566 23.20702675 -7.37523842 21.52064896 C-7.39963171 19.15820174 -7.39866537 16.79701381 -7.39172363 14.43447876 C-7.40453369 13.74232773 -7.41734375 13.0501767 -7.43054199 12.33705139 C-7.36927062 6.59838109 -6.00840591 1.53912842 0 0 Z " fill="#FBFCFC" transform="translate(770.9217529296875,533.2515563964844)"/>
<path d="M0 0 C6.68721375 3.63636508 12.14325484 9.64195392 14.7109375 16.89453125 C16.19196762 26.32085237 15.95025516 36.0886442 10.6015625 44.19140625 C6.59830225 49.25353348 2.37874473 52.54220915 -3.95703125 54.0078125 C-11.91340041 54.91587637 -19.26044227 55.13596349 -26.09375 50.5546875 C-32.72034475 45.05336355 -36.36737552 39.22537231 -37.34375 30.5859375 C-37.76291705 21.45741071 -36.39436476 14.46833987 -30.95703125 7.0078125 C-22.70802441 -1.24119434 -11.10372348 -3.72568793 0 0 Z " fill="#2F3E77" transform="translate(599.95703125,551.9921875)"/>
<path d="M0 0 C7.89443655 4.72660532 11.9752322 10.50772786 14.83984375 19.1015625 C15.68532478 28.8733721 14.53895535 37.29757173 8.15234375 44.9765625 C2.25812409 51.00959531 -2.22166664 53.29175838 -10.72265625 53.4765625 C-18.94386673 53.16400496 -24.22108661 51.81115043 -30.296875 46.171875 C-36.77894967 38.96956981 -38.54106517 31.66207735 -38.4375 22.203125 C-37.75629265 14.58511609 -33.77529069 8.17532748 -28.16015625 3.1015625 C-20.21167797 -3.25400212 -9.31386014 -4.21388175 0 0 Z " fill="#2F3E77" transform="translate(389.16015625,552.8984375)"/>
</svg>
