<?xml version="1.0" encoding="UTF-8"?>
<svg version="1.1" xmlns="http://www.w3.org/2000/svg" width="512" height="512">
<path d="M0 0 C1.41480691 -0.00272078 2.82961239 -0.00628771 4.24441528 -0.01062012 C8.03371383 -0.01961747 11.82290159 -0.01625308 15.61220169 -0.00986195 C19.61118073 -0.00473541 23.61015138 -0.00951161 27.60913086 -0.01263428 C34.31984123 -0.0162548 41.03050732 -0.01152546 47.74121094 -0.00195312 C55.4574803 0.00892771 63.17364389 0.00540077 70.8899107 -0.00560594 C77.56050097 -0.01473376 84.23105973 -0.01593743 90.90165424 -0.0107286 C94.86575868 -0.00763889 98.8298137 -0.00711562 102.79391479 -0.01380157 C106.52383149 -0.01965515 110.2536142 -0.01543476 113.98351669 -0.00401306 C115.97461522 -0.00018403 117.96572533 -0.00598302 119.95681763 -0.01226807 C132.592835 0.04579472 145.18966689 1.22253409 157.34765625 4.82128906 C158.65959961 5.20546997 158.65959961 5.20546997 159.99804688 5.59741211 C193.74829813 15.96364749 220.19148686 39.34032732 236.89453125 70.11816406 C247.28095452 89.84317674 250.25350717 110.1071472 250.38525391 132.14624023 C250.4018418 134.17793205 250.42916888 136.20956484 250.46728516 138.2409668 C250.5222643 141.19382508 250.54395319 144.14533062 250.55859375 147.09863281 C250.58126312 147.99782944 250.6039325 148.89702606 250.62728882 149.82347107 C250.60368668 156.9265066 248.46717099 161.62888094 243.59213257 166.78501892 C238.76982062 171.13717244 233.71955014 172.77820419 227.24609375 172.56738281 C220.10893564 171.57120703 214.67533287 168.75563825 210.19140625 163.13769531 C207.28680703 158.41772158 206.77925901 154.44554322 206.7265625 148.93066406 C206.70403006 147.48444853 206.68098047 146.03824099 206.6574707 144.59204102 C206.64833649 143.84266266 206.63920227 143.0932843 206.62979126 142.32119751 C206.22734919 113.36180269 201.32011954 90.21742919 181.03515625 68.25878906 C166.44158653 54.40726526 145.89557755 45.17474886 125.66893005 45.11834717 C124.43424484 45.11263702 123.19955963 45.10692688 121.92745972 45.1010437 C120.57720957 45.09979864 119.22695932 45.09867348 117.87670898 45.09765625 C116.44028091 45.09302165 115.00385405 45.08799614 113.56742859 45.08261108 C109.6785978 45.06954417 105.78978423 45.06305296 101.90093493 45.05860043 C99.46502693 45.05565957 97.02912352 45.05155283 94.59321785 45.04709625 C86.95365721 45.0334344 79.31410722 45.02376216 71.67453521 45.01989436 C62.89000886 45.0154211 54.10563868 44.99790179 45.32115978 44.96889377 C38.50896343 44.94718867 31.69681072 44.93718534 24.88458019 44.93585324 C20.82646445 44.93481122 16.76849577 44.92903362 12.71041679 44.91103363 C8.88620858 44.8944001 5.06225554 44.89247038 1.23802376 44.90117264 C-0.15419581 44.90193501 -1.54642998 44.89770799 -2.93861389 44.88771439 C-26.47711176 44.72885528 -48.24378971 52.64574096 -65.54199219 68.84472656 C-81.90528349 85.10694056 -90.00025824 107.36555917 -90.140625 130.19628906 C-90.16381017 131.68328259 -90.18792697 133.17026183 -90.21289062 134.65722656 C-90.24798276 136.96103761 -90.27737587 139.2643133 -90.29077148 141.56835938 C-90.41566077 159.60621556 -90.41566077 159.60621556 -97.71484375 167.07128906 C-103.65281585 171.06800105 -109.6765144 173.46664779 -116.96484375 172.25878906 C-124.42375648 170.12404062 -129.19610837 166.10881545 -133.02114868 159.40844727 C-134.0302534 157.10979137 -134.22867331 155.57799855 -134.25537109 153.08300781 C-134.2681308 152.26695068 -134.2808905 151.45089355 -134.29403687 150.61010742 C-134.29626251 149.73104736 -134.29848816 148.8519873 -134.30078125 147.94628906 C-134.30743805 147.02275635 -134.31409485 146.09922363 -134.32095337 145.14770508 C-134.33108333 143.18410222 -134.33577028 141.2204649 -134.33544922 139.25683594 C-134.33974733 136.32457012 -134.37584934 133.39390585 -134.4140625 130.46191406 C-134.62714031 94.99740138 -121.95633025 62.91595614 -97.21875 37.42285156 C-81.27648034 21.60242744 -61.61519659 10.74359107 -40.08984375 4.50878906 C-39.41969238 4.30995117 -38.74954102 4.11111328 -38.05908203 3.90625 C-25.6682704 0.52509242 -12.76907974 -0.04030663 0 0 Z " fill="#FFFFFF" transform="translate(197.96484375,297.7412109375)"/>
<path d="M0 0 C20.18329154 17.51658721 34.69391106 42.66140579 37.015625 69.6171875 C39.03229681 100.67953523 31.46381263 128.7681434 11.015625 152.6171875 C10.29826172 153.53371094 10.29826172 153.53371094 9.56640625 154.46875 C-5.51787938 173.39974457 -31.32943163 185.3094013 -54.984375 188.6171875 C-77.5301643 190.25069629 -98.84816766 188.41726578 -118.984375 177.6171875 C-119.93441406 177.14410156 -120.88445312 176.67101562 -121.86328125 176.18359375 C-128.58644818 172.73317845 -134.24169703 168.50231792 -139.984375 163.6171875 C-140.64953125 163.09769531 -141.3146875 162.57820312 -142 162.04296875 C-162.11676502 145.81053844 -174.18707436 118.84592265 -176.984375 93.6171875 C-179.0954189 63.87243265 -171.8808712 35.89781362 -152.609375 12.8046875 C-113.66503638 -32.06493303 -45.83125288 -38.33780285 0 0 Z M-120.234375 42.2421875 C-131.73235553 57.38356103 -134.35501743 74.0552624 -132.984375 92.6171875 C-131.04719585 106.62758735 -123.76284363 117.78805323 -113.984375 127.6171875 C-113.39269531 128.24367188 -112.80101562 128.87015625 -112.19140625 129.515625 C-101.16209041 140.27712081 -85.08454918 145.47286934 -69.984375 145.9921875 C-52.12264136 145.37789507 -36.31223224 138.51790056 -23.984375 125.6171875 C-23.03691406 124.69873047 -23.03691406 124.69873047 -22.0703125 123.76171875 C-10.20080199 111.5000438 -6.4753897 95.32779819 -6.56225586 78.8190918 C-6.99927665 61.97588052 -14.36799108 47.66116838 -25.984375 35.6171875 C-40.71013847 22.6617344 -57.32826799 17.25731094 -76.74902344 18.40576172 C-94.02072937 20.03936781 -109.03726777 29.25440608 -120.234375 42.2421875 Z " fill="#FFFFFF" transform="translate(325.984375,67.3828125)"/>
</svg>
